<?xml version="1.0" encoding="UTF-8" standalone="no"?>
<!-- Created with Inkscape (http://www.inkscape.org/) -->

<svg
   xmlns:dc="http://purl.org/dc/elements/1.1/"
   xmlns:cc="http://creativecommons.org/ns#"
   xmlns:rdf="http://www.w3.org/1999/02/22-rdf-syntax-ns#"
   xmlns:svg="http://www.w3.org/2000/svg"
   xmlns="http://www.w3.org/2000/svg"
   xmlns:sodipodi="http://sodipodi.sourceforge.net/DTD/sodipodi-0.dtd"
   xmlns:inkscape="http://www.inkscape.org/namespaces/inkscape"
   width="67"
   height="67"
   viewBox="0 0 17.727083 17.727084"
   version="1.1"
   id="svg8"
   inkscape:version="0.92.1 r15371"
   sodipodi:docname="beneficos_out.svg">
  <defs
     id="defs2" />
  <sodipodi:namedview
     id="base"
     pagecolor="#ffffff"
     bordercolor="#666666"
     borderopacity="1.0"
     inkscape:pageopacity="0.0"
     inkscape:pageshadow="2"
     inkscape:zoom="0.35"
     inkscape:cx="15.225669"
     inkscape:cy="-332.69167"
     inkscape:document-units="mm"
     inkscape:current-layer="layer1"
     showgrid="false"
     units="px"
     fit-margin-top="0"
     fit-margin-left="0"
     fit-margin-right="0"
     fit-margin-bottom="0"
     inkscape:window-width="1600"
     inkscape:window-height="838"
     inkscape:window-x="-8"
     inkscape:window-y="-8"
     inkscape:window-maximized="1" />
  <metadata
     id="metadata5">
    <rdf:RDF>
      <cc:Work
         rdf:about="">
        <dc:format>image/svg+xml</dc:format>
        <dc:type
           rdf:resource="http://purl.org/dc/dcmitype/StillImage" />
        <dc:title></dc:title>
      </cc:Work>
    </rdf:RDF>
  </metadata>
  <g
     inkscape:label="Camada 1"
     inkscape:groupmode="layer"
     id="layer1"
     transform="translate(-101.80488,-43.08157)">
    <g
       id="g21"
       transform="matrix(1.9630827,0,0,1.5620194,32.034898,-133.36386)">
      <path
         style="fill:#d8d9e3;stroke-width:0.08466667"
         d="m 36.391198,124.15746 c -0.438995,-0.16929 -0.641813,-0.41949 -0.785362,-0.96884 -0.09996,-0.38253 -0.09547,-0.4091 0.09289,-0.55033 0.108855,-0.0816 0.800697,-0.71037 1.537426,-1.39723 l 1.339508,-1.24883 h 1.51114 c 1.599412,0 1.71434,0.0267 1.71434,0.39793 0,0.3224 -0.273739,0.49841 -1.088083,0.69963 -0.467234,0.11545 -0.774584,0.23389 -0.774584,0.29849 0,0.13186 0.614491,0.40179 1.374531,0.60379 l 0.570199,0.15154 0.869135,-0.85191 c 0.963309,-0.94422 1.151477,-1.07346 1.452844,-0.99782 0.246385,0.0618 0.430403,0.4511 0.344754,0.72928 -0.07298,0.23702 -2.103437,2.31991 -2.427092,2.48976 -0.173898,0.0913 -0.61252,0.11998 -1.832281,0.11998 H 38.68691 l -0.409833,0.33866 c -0.387672,0.32036 -0.439677,0.33842 -0.961719,0.33407 -0.304917,-0.003 -0.718478,-0.0688 -0.92416,-0.14817 z m 3.208607,-5.33132 -1.227667,-0.65424 -0.02318,-1.51776 c -0.01348,-0.88264 0.01058,-1.55151 0.0575,-1.59843 0.09089,-0.0909 2.436539,1.12967 2.611512,1.3589 0.0743,0.0973 0.105833,0.53536 0.105833,1.47021 0,1.36149 -0.0299,1.60086 -0.199558,1.59749 -0.05323,-0.001 -0.649225,-0.29633 -1.324442,-0.65617 z m 1.916031,0.46759 c -0.08149,-0.3041 -0.06123,-2.57277 0.02491,-2.78849 0.09684,-0.24252 2.453231,-1.47754 2.664463,-1.39649 0.117615,0.0451 0.135758,0.24934 0.134637,1.51532 -6.78e-4,0.80474 -0.02929,1.50612 -0.0635,1.55862 -0.07809,0.11983 -2.430713,1.30154 -2.591201,1.30154 -0.06504,0 -0.141227,-0.0857 -0.169306,-0.1905 z m -1.492365,-4.19282 c -0.721201,-0.3845 -1.238133,-0.71219 -1.253521,-0.79462 -0.03803,-0.20368 2.016291,-1.26855 2.480855,-1.28596 0.275188,-0.0103 0.549819,0.1038 1.465186,0.60884 0.821712,0.45336 1.119524,0.65949 1.100667,0.7618 -0.02315,0.12559 -1.939155,1.17557 -2.396519,1.3133 -0.115529,0.0348 -0.559313,-0.15692 -1.396668,-0.60336 z"
         id="path35"
         inkscape:connector-curvature="0" />
      <path
         style="fill:#caccd9;stroke-width:0.08466667"
         d="m 36.594138,124.19796 c -0.583359,-0.22828 -0.861713,-0.54927 -1.017164,-1.17298 -0.04957,-0.19888 -0.01398,-0.25379 0.28807,-0.44447 0.189544,-0.11965 0.853194,-0.71131 1.474777,-1.3148 0.621584,-0.60349 1.234444,-1.1369 1.361913,-1.18536 0.29315,-0.11146 2.50745,-0.11585 2.79756,-0.006 0.258705,0.0984 0.294142,0.41494 0.06901,0.61651 -0.08149,0.073 -0.491066,0.22549 -0.910166,0.33894 -0.801379,0.21693 -0.983931,0.3839 -0.627988,0.5744 0.283671,0.15182 1.612365,0.58891 1.790186,0.58891 0.08622,0 0.590247,-0.4191 1.120057,-0.93133 1.079178,-1.04338 1.290089,-1.12725 1.557415,-0.61938 0.06348,0.12061 0.07066,0.25316 0.02063,0.381 -0.114791,0.29329 -2.303198,2.41831 -2.547998,2.47419 -0.116397,0.0266 -0.918972,0.0583 -1.783501,0.0704 l -1.57187,0.0221 -0.40855,0.35984 c -0.38036,0.335 -0.44132,0.35939 -0.883463,0.35339 -0.261203,-0.004 -0.589214,-0.0512 -0.728914,-0.10583 z m 3.026834,-5.4405 -1.2065,-0.63809 v -1.47157 c 0,-0.80937 0.02976,-1.48997 0.06615,-1.51246 0.08276,-0.0511 2.396317,1.17715 2.489717,1.32183 0.09941,0.15398 0.04493,2.88042 -0.0582,2.91225 -0.04657,0.0144 -0.627592,-0.26101 -1.291167,-0.61196 z m 1.982611,0.58566 c -0.07714,-0.0772 -0.06935,-2.75714 0.0084,-2.8712 0.09057,-0.13294 2.343972,-1.30569 2.508854,-1.30569 0.125302,0 0.137224,0.15383 0.11647,1.50283 l -0.02312,1.50284 -1.185334,0.6102 c -1.192051,0.61367 -1.321582,0.66466 -1.425222,0.56102 z m -1.538111,-4.29726 c -0.651933,-0.34406 -1.195378,-0.6768 -1.207654,-0.73943 -0.03507,-0.17889 2.347022,-1.37125 2.564419,-1.28363 0.510577,0.20579 2.326235,1.26498 2.326235,1.35704 0,0.0942 -2.262688,1.29669 -2.433038,1.29298 -0.03555,-7.7e-4 -0.598029,-0.2829 -1.249962,-0.62696 z"
         id="path33"
         inkscape:connector-curvature="0" />
      <path
         style="fill:#bdc0d0;stroke-width:0.08466667"
         d="m 36.509472,124.15021 c -0.40987,-0.18917 -0.667817,-0.45721 -0.842626,-0.87558 -0.178852,-0.42806 -0.170554,-0.46398 0.144126,-0.62385 0.151341,-0.0769 0.789516,-0.64481 1.418166,-1.26204 0.62865,-0.61723 1.226221,-1.1649 1.327934,-1.21704 0.26266,-0.13465 2.922267,-0.12874 3.0578,0.007 0.158939,0.15894 0.11972,0.39079 -0.0889,0.52555 -0.104775,0.0677 -0.51435,0.20469 -0.910167,0.30446 -0.883915,0.2228 -0.961312,0.28751 -0.65808,0.55024 0.234042,0.20277 1.493804,0.63481 1.851021,0.63481 0.133623,0 0.47806,-0.27914 1.096936,-0.889 0.757996,-0.74694 0.944448,-0.889 1.166852,-0.889 0.18817,0 0.304378,0.0606 0.401933,0.20945 0.12851,0.19613 0.126216,0.22707 -0.0361,0.48683 -0.224073,0.35858 -1.819363,1.93288 -2.246872,2.2173 -0.325924,0.21683 -0.346229,0.21909 -1.972127,0.21909 h -1.642812 l -0.40732,0.381 c -0.379588,0.35506 -0.438426,0.38087 -0.864206,0.37914 -0.261714,-0.001 -0.601558,-0.0686 -0.795553,-0.15816 z m 3.128414,-5.41569 c -0.561139,-0.30944 -1.065964,-0.59345 -1.121834,-0.63112 -0.14847,-0.10012 -0.14436,-2.93777 0.0043,-2.93569 0.05821,8.1e-4 0.620184,0.27703 1.248834,0.61383 l 1.143,0.61236 0.02317,1.4605 c 0.02147,1.3534 0.01215,1.45985 -0.127,1.45162 -0.08259,-0.005 -0.60928,-0.26206 -1.170419,-0.5715 z m 2.013087,-0.88012 0.02317,-1.4605 1.206997,-0.61853 c 0.663849,-0.34018 1.244874,-0.59511 1.291167,-0.5665 0.09754,0.0603 0.115521,2.74162 0.01937,2.88912 -0.0816,0.12518 -2.264921,1.21691 -2.433661,1.21691 -0.11303,0 -0.127152,-0.19269 -0.107042,-1.4605 z m -1.602739,-2.84275 c -0.568281,-0.3108 -1.075921,-0.60791 -1.128088,-0.66024 -0.0916,-0.0919 0.484552,-0.44017 1.930685,-1.16706 l 0.446693,-0.22453 1.193929,0.66037 c 0.65666,0.3632 1.198599,0.69772 1.204307,0.74337 0.01521,0.12161 -2.153795,1.21941 -2.402621,1.21604 -0.116417,-0.002 -0.676624,-0.25716 -1.244905,-0.56795 z"
         id="path31"
         inkscape:connector-curvature="0" />
      <path
         style="fill:#afb2c6;stroke-width:0.08466667"
         d="m 36.765621,124.2482 c -0.467404,-0.11849 -1.053404,-0.72944 -1.174873,-1.2249 -0.04948,-0.20183 -0.02009,-0.24567 0.251027,-0.37432 0.168889,-0.0801 0.860113,-0.68212 1.536053,-1.33773 l 1.228981,-1.19202 1.312952,-0.0273 c 1.438535,-0.0299 1.666295,-0.002 1.748336,0.21142 0.09491,0.24734 -0.223099,0.4467 -1.08253,0.67864 -0.723992,0.19538 -0.821583,0.24364 -0.799383,0.39528 0.03442,0.23507 0.393897,0.42687 1.280217,0.68309 0.922464,0.26666 0.905391,0.27377 2.003066,-0.83444 0.441463,-0.44569 0.872593,-0.81036 0.958066,-0.81036 0.285691,0 0.482939,0.16596 0.482939,0.40633 0,0.18404 -0.228142,0.45707 -1.121833,1.34254 -0.617009,0.61133 -1.217084,1.16297 -1.3335,1.22586 -0.151124,0.0816 -0.687023,0.12273 -1.873571,0.14365 l -1.661905,0.0293 -0.366557,0.37349 c -0.341899,0.34838 -0.395273,0.37284 -0.793429,0.36368 -0.23478,-0.005 -0.502105,-0.0289 -0.594056,-0.0522 z m 2.876518,-5.54171 c -0.605367,-0.32953 -1.128659,-0.64176 -1.162871,-0.69386 -0.08762,-0.13344 -0.08046,-2.74206 0.0077,-2.79653 0.03986,-0.0246 0.611357,0.24239 1.27,0.59338 l 1.197535,0.63815 v 1.43364 c 0,1.09293 -0.02515,1.43252 -0.105833,1.42899 -0.05821,-0.003 -0.601134,-0.27425 -1.2065,-0.60377 z m 1.989666,-0.77547 c 0,-1.21163 0.01844,-1.40018 0.148167,-1.51487 0.172894,-0.15285 2.178025,-1.16525 2.307864,-1.16525 0.05834,0 0.08017,0.49187 0.0648,1.4605 l -0.02317,1.4605 -1.143,0.56489 c -0.62865,0.31069 -1.190625,0.56787 -1.248833,0.5715 -0.08062,0.005 -0.105834,-0.32309 -0.105834,-1.37727 z m -1.587074,-2.95861 c -0.616774,-0.33578 -1.109314,-0.64737 -1.094533,-0.69242 0.01478,-0.045 0.548728,-0.35536 1.186548,-0.68958 l 1.159672,-0.60768 1.155495,0.64732 c 0.635523,0.35603 1.168372,0.68595 1.184109,0.73316 0.02941,0.0882 -2.176351,1.22899 -2.36485,1.22304 -0.05777,-0.002 -0.609667,-0.27805 -1.226441,-0.61384 z"
         id="path29"
         inkscape:connector-curvature="0" />
      <path
         style="fill:#a2a6bd;stroke-width:0.08466667"
         d="m 36.852732,124.24868 c -0.329507,-0.0838 -0.812544,-0.45554 -1.020916,-0.78563 -0.226641,-0.35902 -0.309315,-0.71116 -0.169011,-0.71989 0.22492,-0.014 0.603229,-0.32627 1.70715,-1.40921 l 1.199151,-1.17635 1.510183,0.0232 c 1.481654,0.0227 1.510682,0.0267 1.536598,0.20876 0.03344,0.23495 -0.228626,0.37387 -1.084748,0.575 -0.34925,0.082 -0.690004,0.20087 -0.757232,0.26404 -0.105882,0.0995 -0.09579,0.143 0.07543,0.32526 0.204336,0.21751 1.564297,0.72442 1.943492,0.72442 0.143277,0 0.466818,-0.25768 1.100458,-0.87646 0.493632,-0.48205 0.96464,-0.90013 1.046683,-0.92906 0.230477,-0.0813 0.570497,0.1115 0.570497,0.32344 0,0.12401 -0.373653,0.55406 -1.14533,1.31817 -0.629931,0.62376 -1.230006,1.18117 -1.3335,1.23868 -0.130668,0.0726 -0.69098,0.10548 -1.833568,0.10756 l -1.645399,0.003 -0.408039,0.42334 c -0.369923,0.38379 -0.441627,0.42241 -0.767602,0.41351 -0.197759,-0.005 -0.433695,-0.0287 -0.524302,-0.0517 z m 4.86374,-6.37867 v -1.43265 l 1.175555,-0.5889 c 0.646556,-0.32389 1.199006,-0.56545 1.227667,-0.53679 0.07415,0.0741 0.06232,2.67132 -0.01269,2.78601 -0.03421,0.0523 -0.586079,0.34483 -1.22637,0.65004 l -1.164167,0.55493 z m -2.116667,0.77088 -1.058333,-0.58309 -0.02321,-1.40345 c -0.01277,-0.7719 0.0092,-1.40345 0.0489,-1.40345 0.139523,0 2.176943,1.1204 2.283578,1.25576 0.07913,0.10045 0.101726,0.47622 0.08467,1.40806 -0.01927,1.05277 -0.04508,1.27432 -0.150269,1.29015 -0.06985,0.0105 -0.60325,-0.24329 -1.185334,-0.56398 z m 0.528251,-3.66625 c -0.617513,-0.33399 -1.110208,-0.64658 -1.094879,-0.69466 0.01533,-0.0481 0.482467,-0.32213 1.038083,-0.609 0.555617,-0.28687 1.061862,-0.56835 1.124989,-0.62552 0.07362,-0.0667 0.134338,-0.0736 0.169333,-0.0193 0.03001,0.0466 0.559382,0.36014 1.17639,0.69684 0.617008,0.3367 1.121833,0.62746 1.121833,0.64613 0,0.0322 -2.343524,1.22471 -2.390705,1.21658 -0.01226,-0.002 -0.527532,-0.2771 -1.145044,-0.61108 z"
         id="path27"
         inkscape:connector-curvature="0" />
      <path
         style="fill:#9499b3;stroke-width:0.08466667"
         d="m 36.578948,124.13069 c -0.186208,-0.16114 -0.746249,-0.72863 -0.852643,-0.864 -0.18036,-0.22947 -0.127567,-0.45665 0.120593,-0.51893 0.13035,-0.0327 0.732106,-0.55289 1.418167,-1.22589 0.655457,-0.64298 1.27496,-1.21208 1.376674,-1.26468 0.113998,-0.0589 0.686471,-0.0956 1.492466,-0.0956 1.077777,0 1.326673,0.0231 1.41646,0.13125 0.179567,0.21637 -0.07487,0.37615 -0.990229,0.62186 -0.621857,0.16693 -0.839172,0.26138 -0.860892,0.37416 -0.06192,0.32154 0.376256,0.58618 1.472394,0.88928 0.779493,0.21554 0.87344,0.17272 1.897529,-0.86474 0.771816,-0.78189 1.082746,-0.96567 1.230192,-0.72709 0.02925,0.0473 0.08865,0.0641 0.131997,0.0373 0.04335,-0.0268 0.07882,0.0742 0.07882,0.2244 0,0.15021 -0.01916,0.25395 -0.04258,0.23053 -0.02342,-0.0234 -0.509194,0.43201 -1.0795,1.01207 -0.602212,0.61251 -1.1789,1.12059 -1.375588,1.21194 -0.291507,0.13539 -0.559694,0.15755 -1.925923,0.15915 l -1.587256,0.002 -0.338209,0.30556 c -0.186016,0.16805 -0.317227,0.3395 -0.291581,0.381 0.06508,0.1053 -1.168197,0.0867 -1.290888,-0.0194 z m 3.232524,-5.42119 c -1.477173,-0.8055 -1.312334,-0.5463 -1.312334,-2.06356 0,-0.99241 0.02568,-1.31013 0.105834,-1.30934 0.05821,5.6e-4 0.582083,0.25774 1.164167,0.5715 l 1.058333,0.57046 0.02326,1.37584 c 0.0128,0.7567 -0.0063,1.37293 -0.04233,1.36939 -0.03608,-0.004 -0.484698,-0.23497 -0.99693,-0.51429 z m 1.924069,-0.8551 0.02326,-1.37584 1.100667,-0.56795 c 0.605367,-0.31237 1.129242,-0.56955 1.164167,-0.5715 0.03492,-0.002 0.0635,0.61876 0.0635,1.37937 v 1.38291 l -1.148806,0.56442 c -0.631843,0.31043 -1.166187,0.56442 -1.187431,0.56442 -0.02124,0 -0.02816,-0.61913 -0.01536,-1.37583 z m -1.585402,-2.91143 c -0.5588,-0.3039 -1.044957,-0.5803 -1.080348,-0.61422 -0.06532,-0.0626 2.033014,-1.19452 2.214412,-1.19452 0.105749,0 2.294936,1.17797 2.294936,1.23487 0,0.0596 -2.194518,1.13599 -2.305958,1.1311 -0.05887,-0.003 -0.564242,-0.25333 -1.123042,-0.55723 z"
         id="path25"
         inkscape:connector-curvature="0" />
      <path
         style="fill:#8b90ad;stroke-width:0.08466667"
         d="m 36.746587,124.1535 c 0.125,-0.0493 0.09937,-0.0793 -0.142366,-0.16676 -0.352363,-0.12742 -0.812051,-0.62386 -0.820367,-0.88596 -0.0057,-0.18004 -0.0089,-0.18077 -0.07872,-0.0182 -0.06318,0.14704 -0.07355,0.13683 -0.07872,-0.0776 -0.0033,-0.13582 0.01793,-0.22306 0.04712,-0.19387 0.127033,0.12703 0.661327,-0.29133 1.773827,-1.38892 l 1.191895,-1.17593 h 1.406609 c 0.885763,0 1.426833,0.0327 1.461227,0.0884 0.10931,0.17686 -0.151616,0.32146 -0.915608,0.5074 -0.834626,0.20313 -0.991684,0.28052 -0.991684,0.48863 0,0.27445 0.379301,0.52932 1.159782,0.77933 1.210747,0.38784 1.172861,0.39877 2.230223,-0.64318 0.716918,-0.70647 0.951651,-0.89013 1.10918,-0.86784 0.140643,0.0199 0.207161,0.0911 0.224619,0.24053 0.02029,0.17361 -0.172772,0.40775 -1.06038,1.28599 -0.596851,0.59056 -1.191518,1.11417 -1.321482,1.16359 -0.136438,0.0519 -0.914598,0.0898 -1.841345,0.0898 H 38.49535 l -0.378046,0.34847 c -0.207925,0.19166 -0.357225,0.38216 -0.331778,0.42333 0.02545,0.0412 -0.232206,0.0722 -0.572562,0.0689 -0.340357,-0.003 -0.550229,-0.033 -0.466382,-0.0661 z m 7.692586,-3.3146 c 0,-0.11642 0.01922,-0.16405 0.04271,-0.10584 0.02349,0.0582 0.02349,0.15346 0,0.21167 -0.02349,0.0582 -0.04271,0.0106 -0.04271,-0.10583 z m -4.754701,-2.26865 -1.058334,-0.56921 -0.02334,-1.3381 -0.02334,-1.3381 0.573677,0.31353 c 0.315522,0.17244 0.811802,0.44342 1.102844,0.60217 l 0.529167,0.28864 v 1.30819 c 0,0.71951 -0.0095,1.30682 -0.02117,1.30514 -0.01164,-0.002 -0.497417,-0.25919 -1.0795,-0.57226 z m 2.116667,-0.73641 v -1.31173 l 1.099457,-0.55094 c 0.604702,-0.30302 1.119052,-0.55094 1.143,-0.55094 0.02395,0 0.04354,0.59028 0.04354,1.31173 v 1.31173 l -1.099458,0.55093 c -0.604702,0.30302 -1.119052,0.55094 -1.143,0.55094 -0.02395,0 -0.04354,-0.59027 -0.04354,-1.31172 z m -1.628372,-2.94562 c -0.546354,-0.28948 -0.994029,-0.55326 -0.994833,-0.58618 -0.002,-0.0803 1.953924,-1.07998 2.115205,-1.08109 0.120856,-8.4e-4 1.907807,0.95186 2.064011,1.1004 0.07481,0.0712 -1.883889,1.10134 -2.083876,1.09604 -0.05892,-0.002 -0.554153,-0.23969 -1.100507,-0.52917 z"
         id="path23"
         inkscape:connector-curvature="0" />
    </g>
  </g>
</svg>
