<?xml version="1.0" encoding="UTF-8" standalone="no"?>
<!-- Created with Inkscape (http://www.inkscape.org/) -->

<svg
   xmlns:dc="http://purl.org/dc/elements/1.1/"
   xmlns:cc="http://creativecommons.org/ns#"
   xmlns:rdf="http://www.w3.org/1999/02/22-rdf-syntax-ns#"
   xmlns:svg="http://www.w3.org/2000/svg"
   xmlns="http://www.w3.org/2000/svg"
   xmlns:sodipodi="http://sodipodi.sourceforge.net/DTD/sodipodi-0.dtd"
   xmlns:inkscape="http://www.inkscape.org/namespaces/inkscape"
   width="67"
   height="67"
   viewBox="0 0 17.727083 17.727084"
   version="1.1"
   id="svg43"
   inkscape:version="0.92.1 r15371"
   sodipodi:docname="correio_out.svg">
  <defs
     id="defs37" />
  <sodipodi:namedview
     id="base"
     pagecolor="#ffffff"
     bordercolor="#666666"
     borderopacity="1.0"
     inkscape:pageopacity="0.0"
     inkscape:pageshadow="2"
     inkscape:zoom="3.959798"
     inkscape:cx="91.260885"
     inkscape:cy="38.003687"
     inkscape:document-units="mm"
     inkscape:current-layer="layer1"
     showgrid="false"
     units="px"
     fit-margin-top="0"
     fit-margin-left="0"
     fit-margin-right="0"
     fit-margin-bottom="0"
     inkscape:window-width="1600"
     inkscape:window-height="838"
     inkscape:window-x="-8"
     inkscape:window-y="-8"
     inkscape:window-maximized="1" />
  <metadata
     id="metadata40">
    <rdf:RDF>
      <cc:Work
         rdf:about="">
        <dc:format>image/svg+xml</dc:format>
        <dc:type
           rdf:resource="http://purl.org/dc/dcmitype/StillImage" />
        <dc:title></dc:title>
      </cc:Work>
    </rdf:RDF>
  </metadata>
  <g
     inkscape:label="Camada 1"
     inkscape:groupmode="layer"
     id="layer1"
     transform="translate(-11.270651,-250.79417)">
    <g
       id="g56"
       transform="matrix(1.5716397,0,0,1.5992801,-58.294076,-145.32939)">
      <path
         style="fill:#d8dae3;stroke-width:0.08466667"
         d="m 45.142727,258.68883 c -0.751799,-0.16906 -0.880211,-0.55212 -0.880211,-2.6257 0,-1.32706 0.02039,-1.59603 0.120997,-1.59603 0.06655,0 1.267948,0.4953 2.669776,1.10066 1.654621,0.71454 2.652523,1.10067 2.844498,1.10067 0.18829,0 1.206979,-0.38447 2.804169,-1.05833 1.379648,-0.58209 2.581005,-1.05834 2.669681,-1.05834 0.154078,0 0.160076,0.0761 0.135221,1.7145 -0.03091,2.03791 -0.06381,2.14859 -0.703499,2.36696 -0.37863,0.12926 -0.891089,0.1439 -4.868176,0.1391 -2.44475,-0.003 -4.601356,-0.0405 -4.792456,-0.0835 z m 3.564789,-2.98066 c -1.363137,-0.45284 -1.953674,-1.29441 -1.940276,-2.76507 0.01093,-1.19935 0.519911,-2.1358 1.461816,-2.68951 l 0.393793,-0.23149 -1.348208,-0.0234 c -0.878387,-0.0152 -1.379964,0.008 -1.439334,0.0676 -0.05795,0.0578 -0.100497,0.77537 -0.116866,1.97073 -0.01416,1.03387 -0.05571,1.90989 -0.09233,1.94671 -0.0714,0.0718 -1.08182,-0.33197 -1.257757,-0.50256 -0.13493,-0.13083 -0.141188,-1.25417 -0.0092,-1.64724 0.05316,-0.15829 0.157935,-0.35843 0.232833,-0.44475 0.09283,-0.10698 0.150544,-0.39062 0.181312,-0.89105 0.05218,-0.84869 0.183601,-1.09679 0.72243,-1.36377 0.277536,-0.13752 0.512504,-0.17057 1.212722,-0.17057 h 0.868489 l 0.980556,-0.635 c 1.317988,-0.85351 1.37264,-0.85351 2.687245,0 l 0.97804,0.635 h 0.870252 c 1.459215,0 1.913283,0.36476 1.987984,1.59697 0.02156,0.35569 0.08637,0.70385 0.144021,0.7737 0.199106,0.24125 0.298127,0.70509 0.298127,1.39651 0,0.7948 -0.0309,0.84262 -0.739153,1.14387 -0.721314,0.30682 -0.70018,0.36118 -0.70018,-1.80112 0,-1.35768 -0.02864,-1.91937 -0.1016,-1.99233 -0.06863,-0.0686 -0.4597,-0.1016 -1.205046,-0.1016 H 51.67374 l 0.44646,0.39056 c 0.576973,0.50472 0.875693,1.08956 0.928137,1.81712 0.11979,1.66186 -1.082459,2.72382 -2.190458,1.93485 l -0.248368,-0.17685 -0.438464,0.21849 c -0.538146,0.26817 -0.994395,0.27888 -1.430847,0.0336 -0.979172,-0.55032 -0.845591,-2.26006 0.219578,-2.81043 0.567322,-0.29314 1.993285,-0.29266 2.286709,7.7e-4 0.09978,0.0998 0.128011,0.34845 0.128011,1.12759 0,0.78143 0.02748,1.0224 0.125922,1.1041 0.173053,0.14362 0.349301,0.0574 0.55502,-0.27143 0.147271,-0.23543 0.170042,-0.39041 0.148652,-1.01171 -0.02263,-0.65724 -0.05173,-0.77132 -0.27926,-1.09469 -0.384857,-0.54696 -0.929621,-0.78649 -1.779519,-0.78247 -0.801406,0.004 -1.349248,0.20677 -1.834749,0.67978 -0.794279,0.77383 -0.96393,2.26596 -0.361407,3.17868 0.46004,0.69688 1.716355,0.99733 2.953242,0.70628 0.63137,-0.14857 0.758296,-0.10998 0.712101,0.21652 -0.0192,0.13572 -0.137073,0.25333 -0.365734,0.36491 -0.432263,0.21094 -2.022109,0.27523 -2.541268,0.10276 z m 1.375834,-2.17013 0.359833,-0.16333 v -0.76614 -0.76614 h -0.377016 c -0.743808,0 -1.062318,0.3269 -1.062318,1.09032 0,0.35439 0.03547,0.44929 0.223085,0.59687 0.273908,0.21545 0.397635,0.21667 0.856416,0.008 z"
         id="path70"
         inkscape:connector-curvature="0" />
      <path
         style="fill:#c8cbd8;stroke-width:0.08466667"
         d="m 44.982183,258.61966 c -0.260205,-0.10763 -0.545488,-0.45379 -0.637022,-0.77295 -0.04545,-0.15849 -0.08264,-0.96469 -0.08264,-1.79155 0,-1.31899 0.01655,-1.5034 0.134889,-1.5034 0.07419,0 1.280948,0.4953 2.681686,1.10067 1.523963,0.65862 2.656678,1.10067 2.820394,1.10067 0.160736,0 1.348147,-0.45404 2.87851,-1.10067 1.432701,-0.60537 2.636473,-1.10067 2.67505,-1.10067 0.03858,0 0.0693,0.71438 0.06828,1.5875 -0.0016,1.36162 -0.02416,1.63661 -0.158594,1.93259 -0.294287,0.64795 -0.130075,0.62929 -5.482676,0.62321 -2.600696,-0.003 -4.804738,-0.0369 -4.897871,-0.0754 z m 3.525725,-3.05185 c -1.178367,-0.42389 -1.797968,-1.46789 -1.682329,-2.83463 0.09231,-1.09101 0.749592,-2.12496 1.60677,-2.52757 0.174625,-0.082 0.3175,-0.18544 0.3175,-0.22982 0,-0.11141 -2.675114,-0.10496 -2.884232,0.007 -0.154239,0.0825 -0.163768,0.19525 -0.163768,1.93697 0,1.37628 -0.02707,1.87173 -0.105833,1.93693 -0.07525,0.0623 -0.25261,0.026 -0.613833,-0.12555 -0.2794,-0.11725 -0.555625,-0.25193 -0.613834,-0.29929 -0.127882,-0.10404 -0.142991,-1.07992 -0.02319,-1.49765 0.04545,-0.15849 0.154976,-0.36779 0.243382,-0.46511 0.120799,-0.13298 0.172118,-0.35362 0.206544,-0.88802 0.04877,-0.75709 0.150034,-0.979 0.600383,-1.31569 0.1978,-0.14788 0.383674,-0.17897 1.215998,-0.20338 l 0.982508,-0.0288 1.030406,-0.66968 c 0.661445,-0.42989 1.114918,-0.66969 1.266425,-0.66969 0.150087,0 0.622646,0.24661 1.297924,0.67734 l 1.061905,0.67733 h 0.877646 c 0.718899,0 0.939445,0.0315 1.219304,0.1743 0.454505,0.23187 0.66323,0.68665 0.665738,1.45054 10e-4,0.31995 0.04255,0.59164 0.09534,0.62428 0.235482,0.14553 0.410821,0.76529 0.412658,1.45859 l 0.0019,0.70204 -0.558226,0.25046 c -0.307027,0.13775 -0.611827,0.25046 -0.677336,0.25046 -0.09872,0 -0.119108,-0.31562 -0.119108,-1.84383 0,-1.53178 -0.02231,-1.87568 -0.1318,-2.032 -0.125856,-0.17968 -0.186972,-0.18817 -1.354667,-0.18817 -0.672577,0 -1.222866,0.0294 -1.222866,0.0654 0,0.036 0.137234,0.13932 0.304965,0.22965 0.425003,0.22888 0.927272,0.82616 1.085676,1.29105 0.153915,0.45171 0.173297,1.27231 0.04128,1.74777 -0.05012,0.18052 -0.233378,0.48071 -0.407233,0.66709 -0.271905,0.2915 -0.377563,0.34479 -0.755694,0.38112 -0.378503,0.0364 -0.488639,0.01 -0.792527,-0.19132 -0.30912,-0.20457 -0.374733,-0.21975 -0.528534,-0.12226 -0.464842,0.29464 -0.669954,0.35274 -1.114947,0.31584 -0.77907,-0.0646 -1.175651,-0.58421 -1.119457,-1.46672 0.04308,-0.67654 0.32517,-1.12821 0.86908,-1.39151 0.333888,-0.16163 0.497624,-0.18365 1.178104,-0.15842 0.506877,0.0188 0.840466,0.071 0.930137,0.1455 0.11552,0.096 0.139816,0.2899 0.139816,1.11578 0,0.79583 0.02712,1.02671 0.133047,1.13264 0.16622,0.16622 0.20588,0.16577 0.449724,-0.005 0.279119,-0.1955 0.433229,-0.62282 0.433229,-1.20125 0,-1.32685 -0.748842,-2.04477 -2.134658,-2.04653 -1.174472,-0.001 -2.016844,0.50637 -2.443113,1.47292 -0.195511,0.44332 -0.259425,1.28047 -0.140435,1.83943 0.105916,0.49754 0.523172,0.99297 1.032787,1.22628 0.734084,0.33607 1.395267,0.35159 2.697285,0.0633 0.223819,-0.0496 0.237705,-0.037 0.211667,0.19095 -0.02385,0.20882 -0.08888,0.2648 -0.4512,0.38844 -0.609863,0.20812 -1.96894,0.19891 -2.570275,-0.0174 z m 1.723608,-2.02151 c 0.253913,-0.14698 0.254,-0.1473 0.254,-0.94662 v -0.79958 l -0.397749,-0.0256 c -0.750047,-0.0483 -1.171052,0.36451 -1.165892,1.14326 0.0053,0.79252 0.563523,1.06047 1.309641,0.62857 z"
         id="path68"
         inkscape:connector-curvature="0" />
      <path
         style="fill:#bec0d0;stroke-width:0.08466667"
         d="m 44.88046,258.53452 c -0.514635,-0.31379 -0.572497,-0.53947 -0.603251,-2.35292 -0.02029,-1.19621 -0.0015,-1.62984 0.07061,-1.62984 0.05404,0 1.209475,0.48134 2.56764,1.06964 1.358165,0.5883 2.609212,1.10651 2.780103,1.15158 0.2901,0.0765 0.486672,0.008 2.963333,-1.03665 1.458943,-0.61522 2.700247,-1.13751 2.758456,-1.16064 0.08241,-0.0327 0.105804,0.31125 0.105702,1.55452 -1.7e-4,1.79416 -0.0571,2.02612 -0.58389,2.37803 l -0.287688,0.19219 -4.749979,-3.4e-4 c -4.561759,-3.4e-4 -4.76072,-0.007 -5.021035,-0.16559 z m 3.886103,-2.9241 c -0.568024,-0.15958 -0.715049,-0.23958 -1.131002,-0.61537 -1.119675,-1.01156 -1.052966,-3.11695 0.134338,-4.23986 0.243123,-0.22993 0.610696,-0.50799 0.816829,-0.61791 l 0.374788,-0.19985 -1.515119,-0.0232 c -1.320647,-0.0202 -1.535277,-0.005 -1.672167,0.11896 -0.143822,0.13015 -0.157047,0.29788 -0.157047,1.99167 0,1.53312 -0.02038,1.84954 -0.119108,1.84954 -0.06551,0 -0.370309,-0.11271 -0.677333,-0.25046 l -0.558226,-0.25046 4.72e-4,-0.53271 c 5.92e-4,-0.66715 0.116279,-1.09222 0.383782,-1.41013 0.180014,-0.21393 0.208456,-0.33255 0.208729,-0.87046 5.85e-4,-1.15081 0.349255,-1.43235 1.865614,-1.5064 l 0.976931,-0.0477 0.9669,-0.63077 c 0.684557,-0.44658 1.044809,-0.63077 1.233703,-0.63077 0.189121,0 0.547587,0.18366 1.231169,0.63077 l 0.964367,0.63077 1.031561,0.0501 c 1.135636,0.0551 1.348873,0.13458 1.639164,0.61067 0.122585,0.20105 0.165056,0.4253 0.165292,0.87276 2.54e-4,0.54024 0.02623,0.6348 0.252153,0.91909 0.297394,0.37422 0.359676,0.64822 0.324555,1.42784 l -0.02606,0.57846 -0.579705,0.24697 c -0.318838,0.13583 -0.614113,0.2257 -0.656167,0.19971 -0.04205,-0.026 -0.07646,-0.88048 -0.07646,-1.89888 0,-1.5704 -0.02021,-1.87182 -0.133047,-1.98467 -0.10907,-0.10906 -0.360841,-0.13304 -1.397,-0.13304 -0.695174,0 -1.263953,0.0335 -1.263953,0.0744 0,0.0409 0.114595,0.12186 0.254655,0.17988 0.37116,0.15374 0.922729,0.72223 1.108755,1.14277 0.50292,1.13694 0.124302,2.63954 -0.736699,2.92369 -0.38738,0.12785 -0.811656,0.0444 -1.128011,-0.22175 l -0.252284,-0.21229 -0.329509,0.21806 c -0.449715,0.29761 -1.064972,0.36053 -1.456907,0.14899 -0.338491,-0.18269 -0.677588,-0.76393 -0.676861,-1.16018 0.0014,-0.77178 0.501916,-1.46951 1.187931,-1.65606 0.363588,-0.0989 1.595988,-0.0664 1.779268,0.0468 0.04418,0.0273 0.08033,0.50038 0.08033,1.05127 0,0.85704 0.02316,1.03023 0.160471,1.1998 0.137114,0.16933 0.195001,0.18603 0.397693,0.11475 0.390456,-0.13732 0.583142,-0.57306 0.579275,-1.30999 -0.0025,-0.47964 -0.04767,-0.72006 -0.184398,-0.98186 -0.525406,-1.00599 -1.75834,-1.37476 -3.081003,-0.92155 -0.546863,0.18739 -1.03692,0.63647 -1.317045,1.20692 -0.207574,0.4227 -0.237916,0.58205 -0.237386,1.24665 6.94e-4,0.87318 0.153874,1.26524 0.672115,1.72026 0.572013,0.50224 1.52874,0.62401 3.031445,0.38586 0.277864,-0.044 0.3175,-0.0292 0.3175,0.11909 0,0.41372 -1.803587,0.67334 -2.777287,0.39978 z m 1.337018,-1.94717 c 0.402471,-0.20813 0.509077,-0.43889 0.507639,-1.09883 -7.12e-4,-0.32724 -0.03607,-0.64994 -0.07856,-0.71711 -0.110545,-0.17471 -0.858321,-0.16001 -1.136643,0.0224 -0.3633,0.23804 -0.51312,0.54575 -0.51312,1.05386 0,0.40066 0.03148,0.48985 0.234531,0.66451 0.269838,0.2321 0.629691,0.25955 0.986153,0.0752 z"
         id="path66"
         inkscape:connector-curvature="0" />
      <path
         style="fill:#b1b4c8;stroke-width:0.08466667"
         d="m 44.729669,258.33394 -0.382486,-0.36648 v -1.70575 -1.70576 l 0.1905,0.0725 c 0.104775,0.0398 1.299459,0.55325 2.654853,1.1409 1.355394,0.58766 2.567418,1.06846 2.693387,1.06846 0.192273,0 4.178284,-1.61441 5.250996,-2.12676 0.183372,-0.0876 0.348156,-0.15924 0.366189,-0.15924 0.01803,0 0.0204,0.75351 0.0053,1.67447 -0.02623,1.59555 -0.03666,1.68607 -0.221346,1.92065 -0.457241,0.58073 -0.190244,0.55355 -5.437071,0.55355 H 45.11219 Z m 4.297015,-2.68609 c -0.867955,-0.1713 -1.509285,-0.61669 -1.868497,-1.29762 -0.206409,-0.39127 -0.228671,-0.52001 -0.228671,-1.32247 0,-0.7836 0.02645,-0.94541 0.223111,-1.36482 0.302657,-0.64548 0.729764,-1.09538 1.357543,-1.42998 0.496104,-0.26442 0.51391,-0.28432 0.319053,-0.35656 -0.333426,-0.12362 -2.905537,-0.0461 -3.07231,0.0926 -0.122043,0.1015 -0.13973,0.35004 -0.13973,1.96351 0,1.01601 -0.03369,1.86812 -0.07486,1.89357 -0.04117,0.0254 -0.326631,-0.058 -0.63435,-0.18551 l -0.559489,-0.23177 -6.5e-4,-0.77152 c -6.16e-4,-0.73024 0.01294,-0.78863 0.25335,-1.09114 0.22242,-0.27988 0.254,-0.38693 0.254,-0.86103 0,-0.61982 0.133438,-0.99515 0.461456,-1.29797 0.211764,-0.1955 0.308131,-0.2149 1.261453,-0.254 l 1.032174,-0.0423 1.010904,-0.65616 c 0.712004,-0.46216 1.088992,-0.65617 1.275005,-0.65617 0.186169,0 0.573996,0.19987 1.314275,0.67733 l 1.050172,0.67734 h 0.922787 c 0.777419,0 0.966288,0.0269 1.198933,0.17066 0.383802,0.23721 0.548174,0.6305 0.548174,1.31162 0,0.51133 0.02699,0.60175 0.271846,0.91092 0.252602,0.31893 0.274242,0.39799 0.305679,1.11679 l 0.03383,0.77356 -0.593718,0.23901 c -0.326546,0.13146 -0.635551,0.21316 -0.68668,0.18156 -0.06291,-0.0389 -0.09296,-0.65467 -0.09296,-1.90475 0,-1.61333 -0.01769,-1.86202 -0.139706,-1.96351 -0.09813,-0.0816 -0.466151,-0.12455 -1.236714,-0.14427 -1.516415,-0.0388 -1.840377,0.0615 -1.171847,0.36301 0.790783,0.3566 1.29543,1.20845 1.301554,2.19706 0.006,0.96642 -0.407514,1.6763 -1.06249,1.82402 -0.327236,0.0738 -0.820783,-0.0597 -1.076661,-0.29129 -0.148155,-0.13408 -0.178661,-0.13 -0.523562,0.07 -0.881305,0.51115 -1.815768,0.20094 -2.000247,-0.66403 -0.161676,-0.75805 0.133093,-1.47372 0.749335,-1.81931 0.322094,-0.18064 0.480947,-0.21057 1.096338,-0.20658 1.098949,0.007 1.100667,0.009 1.100667,1.21908 0,1.09068 0.0665,1.27307 0.464188,1.27307 0.693698,0 0.961748,-1.58909 0.423094,-2.50823 -0.402683,-0.68713 -1.127455,-1.00606 -2.147232,-0.94486 -0.796982,0.0478 -1.365776,0.31494 -1.855635,0.87145 -0.439882,0.49973 -0.609749,1.00623 -0.609749,1.8181 0,1.06722 0.447629,1.75183 1.360481,2.08074 0.445034,0.16034 1.54616,0.1823 2.14556,0.0428 0.289634,-0.0674 0.442596,-0.0699 0.504371,-0.008 0.15632,0.15632 -0.134054,0.33633 -0.75456,0.46778 -0.643002,0.13621 -1.155257,0.14773 -1.709017,0.0384 z m 1.164827,-1.99747 c 0.374927,-0.24965 0.421005,-0.3702 0.421005,-1.10149 0,-0.60591 -0.02211,-0.71234 -0.163767,-0.78815 -0.250511,-0.13407 -0.69614,-0.10466 -1.016345,0.0671 -0.657354,0.35254 -0.812884,1.43397 -0.266558,1.85343 0.194279,0.14916 0.781848,0.13148 1.025665,-0.0309 z"
         id="path64"
         inkscape:connector-curvature="0" />
      <path
         style="fill:#a2a6bd;stroke-width:0.08466667"
         d="m 44.98995,258.53066 c -0.135427,-0.0866 -0.334082,-0.26475 -0.441455,-0.39598 -0.188843,-0.23079 -0.195322,-0.29285 -0.198267,-1.89915 l -0.003,-1.66057 2.6035,1.12998 c 1.858476,0.80663 2.698255,1.13039 2.934624,1.1314 0.235483,10e-4 1.066952,-0.30785 2.878666,-1.06934 1.401149,-0.58891 2.598171,-1.11042 2.660051,-1.1589 0.09293,-0.0728 0.107662,0.19825 0.08467,1.55759 -0.03123,1.84625 -0.05898,1.94187 -0.676579,2.33175 l -0.321564,0.20299 -4.637183,-0.006 c -4.369144,-0.006 -4.651415,-0.0153 -4.883415,-0.16358 z m 3.717566,-2.99217 c -0.792599,-0.26119 -1.262265,-0.66748 -1.581045,-1.36773 -0.155794,-0.34222 -0.192241,-0.56933 -0.190222,-1.18533 0.0021,-0.65195 0.03704,-0.83823 0.241682,-1.28984 0.290333,-0.64071 0.879949,-1.22045 1.536595,-1.51085 0.257148,-0.11372 0.444244,-0.24447 0.415769,-0.29054 -0.06017,-0.0974 -3.165871,-0.11517 -3.309937,-0.019 -0.24702,0.16494 -0.287842,0.47315 -0.287842,2.1733 0,1.07031 -0.03169,1.74123 -0.08225,1.74123 -0.04524,0 -0.289939,-0.0918 -0.543779,-0.20411 -0.25384,-0.11226 -0.483526,-0.18211 -0.510414,-0.15522 -0.02689,0.0269 -0.04889,-0.30265 -0.04889,-0.7323 0,-0.76242 0.0071,-0.79052 0.296333,-1.16929 0.274344,-0.3593 0.296357,-0.43274 0.29665,-0.98975 5.85e-4,-1.11192 0.373775,-1.40523 1.790479,-1.40724 l 0.876204,-0.001 1.052437,-0.67609 c 0.57884,-0.37185 1.135597,-0.67609 1.237238,-0.67609 0.101641,0 0.662176,0.3048 1.245633,0.67733 l 1.060832,0.67734 0.87693,1.3e-4 c 1.416515,2.1e-4 1.765893,0.27747 1.834086,1.45547 0.03609,0.6235 0.06912,0.73646 0.298934,1.02243 0.235094,0.29255 0.261324,0.38796 0.291299,1.05957 l 0.03294,0.73806 -0.493832,0.18588 c -0.271607,0.10222 -0.560507,0.21108 -0.641998,0.24189 -0.138333,0.0523 -0.148167,-0.0682 -0.148167,-1.81571 0,-2.39605 0.141814,-2.21039 -1.688337,-2.21039 -0.775234,0 -1.371148,0.0348 -1.400134,0.0816 -0.02775,0.0449 0.139063,0.17769 0.370706,0.29508 0.934085,0.47333 1.409271,1.31396 1.3425,2.37494 -0.08504,1.35131 -0.986767,2.04302 -1.876347,1.43933 -0.171549,-0.11642 -0.338791,-0.21151 -0.371648,-0.21131 -0.03286,1.9e-4 -0.247172,0.0954 -0.476256,0.21166 -1.001751,0.50823 -1.914638,0.002 -1.909827,-1.05868 0.0033,-0.72826 0.412176,-1.31141 1.072224,-1.52924 0.410804,-0.13558 1.707071,-0.0667 1.810173,0.0963 0.04199,0.0663 0.07694,0.56744 0.07765,1.11352 0.0013,0.97669 0.0049,0.99525 0.22272,1.13797 0.197776,0.12959 0.245246,0.13187 0.4445,0.0214 0.355824,-0.19728 0.519391,-0.62338 0.517419,-1.34791 -0.002,-0.7382 -0.166112,-1.17013 -0.601503,-1.58321 -0.439394,-0.41688 -0.862852,-0.5611 -1.643752,-0.55984 -1.291035,0.002 -2.229406,0.65092 -2.579185,1.78338 -0.0929,0.30076 -0.168902,0.70736 -0.168902,0.90355 0,0.90383 0.518881,1.77429 1.251522,2.0995 0.631863,0.28048 1.974397,0.28477 2.694052,0.009 0.07784,-0.0299 0.118426,0.0143 0.118426,0.12897 0,0.12753 -0.08534,0.20097 -0.3175,0.27323 -0.483468,0.15047 -2.03187,0.18177 -2.434167,0.0492 z m 1.33622,-1.77937 c 0.5131,-0.21718 0.578222,-0.36489 0.550934,-1.24969 l -0.02449,-0.794 -0.465667,-0.0219 c -0.256117,-0.0121 -0.559773,0.0266 -0.674792,0.0859 -0.723944,0.37322 -0.820023,1.7373 -0.141649,2.01106 0.263564,0.10636 0.448396,0.0987 0.755661,-0.0314 z"
         id="path62"
         inkscape:connector-curvature="0" />
      <path
         style="fill:#9498b3;stroke-width:0.08466667"
         d="m 45.223482,258.64258 c 0.03182,-0.0318 -0.05802,-0.10658 -0.199655,-0.16613 -0.141629,-0.0596 -0.323239,-0.22378 -0.403576,-0.36495 -0.08034,-0.14116 -0.174643,-0.25691 -0.209568,-0.2572 -0.03493,-3e-4 -0.06292,-0.75301 -0.0622,-1.6727 7.13e-4,-0.91969 0.02929,-1.63205 0.0635,-1.58302 0.104274,0.14944 5.230459,2.32385 5.478494,2.32385 0.193428,0 4.183344,-1.61586 5.230543,-2.1183 l 0.3175,-0.15233 v 1.61419 1.61419 l -0.329129,0.30429 c -0.18102,0.16736 -0.388963,0.35192 -0.462093,0.41013 -0.102748,0.0818 -1.195193,0.10583 -4.807315,0.10583 -2.570894,0 -4.648317,-0.026 -4.616497,-0.0578 z m 3.814802,-3.07192 c -0.863626,-0.18491 -1.41975,-0.56315 -1.777612,-1.20903 -0.228312,-0.41206 -0.246489,-0.51042 -0.246489,-1.33387 0,-0.78467 0.02631,-0.94511 0.224194,-1.36719 0.296289,-0.63197 0.815445,-1.13656 1.478854,-1.43736 0.29734,-0.13482 0.540618,-0.28113 0.540618,-0.32512 0,-0.14363 -0.547957,-0.18774 -1.97051,-0.15862 -1.902127,0.0389 -1.754823,-0.14107 -1.754823,2.1443 0,0.98621 -0.022,1.8151 -0.04889,1.84199 -0.02689,0.0269 -0.258062,-0.0436 -0.51372,-0.15668 -0.255658,-0.11307 -0.500358,-0.18362 -0.543779,-0.15678 -0.107002,0.0661 -0.102751,-1.37849 0.0044,-1.50994 0.488877,-0.5995 0.488943,-0.59967 0.520905,-1.3035 0.02436,-0.53635 0.07135,-0.74608 0.208568,-0.93088 0.282138,-0.37998 0.505502,-0.44761 1.482708,-0.44897 l 0.898571,-0.001 1.060832,-0.67733 c 0.697134,-0.44512 1.143776,-0.67691 1.302762,-0.67609 0.156636,8.1e-4 0.612977,0.23961 1.294367,0.67733 l 1.052436,0.67609 h 0.95964 0.959641 l 0.311656,0.28562 c 0.305446,0.27992 0.312592,0.30087 0.358591,1.0516 0.04039,0.65921 0.07644,0.79935 0.2586,1.00528 0.116416,0.13161 0.240241,0.25211 0.275166,0.26778 0.03493,0.0157 0.0635,0.39363 0.0635,0.83989 0,0.44626 -0.02219,0.7892 -0.04931,0.76207 -0.02712,-0.0271 -0.246198,0.0424 -0.486833,0.1544 -0.240635,0.11204 -0.485143,0.20408 -0.543352,0.20454 -0.08147,6.3e-4 -0.105833,-0.4265 -0.105833,-1.8558 0,-2.05075 -0.0043,-2.0682 -0.539172,-2.16854 -0.464123,-0.0871 -2.574371,-0.008 -2.682707,0.10093 -0.07322,0.0734 0.03903,0.16245 0.455182,0.36106 0.92402,0.44099 1.354608,1.13258 1.355227,2.1767 5.93e-4,1.03633 -0.489573,1.74823 -1.20376,1.74823 -0.308407,0 -0.435876,-0.0565 -0.910313,-0.40366 -0.07831,-0.0573 -0.162505,-0.0509 -0.26329,0.0201 -0.396025,0.27884 -0.678486,0.38002 -1.060911,0.38002 -0.71867,0 -1.10228,-0.43832 -1.094976,-1.25115 0.0098,-1.09487 0.811804,-1.66168 2.13472,-1.50878 l 0.635,0.0734 0.04233,1.06694 c 0.04657,1.17371 0.113433,1.34606 0.522216,1.34606 0.534844,0 0.885289,-0.71534 0.810702,-1.65483 -0.06379,-0.80351 -0.438894,-1.39255 -1.121251,-1.76076 -0.283014,-0.15271 -0.477799,-0.18258 -1.185333,-0.18177 -0.727712,8.4e-4 -0.906145,0.0303 -1.270001,0.20965 -0.983451,0.48476 -1.483185,1.3368 -1.479807,2.52305 0.0054,1.88309 1.430114,2.70095 3.797007,2.17962 0.219669,-0.0484 0.276552,-0.0369 0.247564,0.0501 -0.08861,0.26582 -1.682672,0.48549 -2.403329,0.33119 z m 1.092965,-1.79148 c 0.500931,-0.25799 0.565934,-0.39392 0.565934,-1.18346 0,-0.87366 -0.08229,-1.00736 -0.619881,-1.00716 -0.423319,1.6e-4 -0.873566,0.21315 -1.097911,0.51936 -0.341962,0.46676 -0.266158,1.35866 0.139632,1.64288 0.209735,0.14691 0.752548,0.16213 1.012226,0.0284 z"
         id="path60"
         inkscape:connector-curvature="0" />
      <path
         style="fill:#8b90ad;stroke-width:0.08466667"
         d="m 47.591677,258.63698 c 1.295521,-0.0132 3.391021,-0.0131 4.656666,2e-5 1.265646,0.0132 0.205673,0.0239 -2.355494,0.0239 -2.561166,-1e-5 -3.596694,-0.0108 -2.301172,-0.0239 z m -2.625257,-0.271 c -0.14837,-0.0905 -0.310295,-0.24022 -0.359834,-0.33279 -0.09464,-0.17683 -0.131504,-3.22743 -0.039,-3.22743 0.02809,0 1.009164,0.41628 2.180167,0.92507 2.828422,1.22891 3.012989,1.29846 3.29583,1.24189 0.375542,-0.0751 5.251385,-2.15668 5.325636,-2.27359 0.03669,-0.0578 0.06461,0.65697 0.06205,1.5883 -0.0028,1.02344 -0.03344,1.62634 -0.07742,1.524 -0.06675,-0.15534 -0.07326,-0.15639 -0.07872,-0.0127 -0.0033,0.0862 -0.135491,0.28617 -0.293818,0.4445 l -0.287866,0.28787 -4.728634,-3.4e-4 c -4.532867,-3.4e-4 -4.739802,-0.007 -4.998396,-0.1648 z m -0.583661,-2.16322 c -7.5e-5,-0.93133 0.0123,-1.32388 0.02749,-0.87233 0.01519,0.45154 0.01525,1.21354 1.36e-4,1.69333 -0.01512,0.47979 -0.02755,0.11034 -0.02763,-0.821 z m 4.513942,-0.72181 c -1.357794,-0.34249 -2.052528,-1.45892 -1.840648,-2.95791 0.142889,-1.0109 0.731412,-1.8088 1.616552,-2.19167 0.762311,-0.32975 0.870646,-0.39041 0.854731,-0.47861 -0.0095,-0.0526 -0.716071,-0.0933 -1.863496,-0.10741 -1.790419,-0.022 -1.853307,-0.0171 -2.010938,0.15682 -0.146645,0.16184 -0.166901,0.3576 -0.205053,1.98172 l -0.04233,1.80215 -0.444419,-0.18097 -0.44442,-0.18097 -8e-5,-0.73434 c -7.5e-5,-0.67768 0.01788,-0.75567 0.232752,-1.01086 0.204244,-0.24256 0.238533,-0.36838 0.279251,-1.02465 0.04065,-0.6552 0.07318,-0.7749 0.261833,-0.96356 0.274251,-0.27425 0.68715,-0.36838 1.627013,-0.37091 l 0.749931,-0.002 1.060832,-0.67733 c 0.583457,-0.37253 1.095231,-0.67733 1.137276,-0.67733 0.134496,0 0.683372,0.31504 1.466698,0.84184 l 0.762,0.51247 0.762,0.002 c 0.955318,0.003 1.364043,0.0961 1.643167,0.37513 0.193618,0.19357 0.224869,0.30761 0.265038,0.96717 0.03981,0.6536 0.07445,0.78208 0.275167,1.02062 0.126296,0.1501 0.232306,0.33665 0.235579,0.41457 0.0048,0.11373 0.02031,0.10827 0.07872,-0.0277 0.04756,-0.11068 0.07483,0.11835 0.07871,0.66116 0.0038,0.5271 -0.02462,0.8116 -0.07774,0.77878 -0.04603,-0.0284 -0.260424,0.0265 -0.47643,0.122 -0.216006,0.0956 -0.425995,0.17373 -0.466643,0.17373 -0.04065,0 -0.0739,-0.81915 -0.0739,-1.82034 0,-1.7139 -0.01001,-1.83034 -0.171156,-1.99149 -0.161631,-0.16163 -0.261744,-0.16987 -1.799166,-0.14816 -1.021285,0.0144 -1.624663,0.0545 -1.619025,0.10765 0.0049,0.0466 0.280119,0.22069 0.611505,0.38694 0.741248,0.37187 0.857835,0.47537 1.163731,1.03309 0.209157,0.38135 0.243121,0.53643 0.245276,1.11997 0.0029,0.79532 -0.179158,1.23712 -0.639864,1.55246 -0.368169,0.25199 -0.841759,0.20899 -1.170881,-0.10633 -0.125411,-0.12015 -0.27572,-0.21846 -0.334021,-0.21846 -0.07715,0 -0.07013,-0.0512 0.0258,-0.18817 0.151196,-0.21587 0.186648,-1.41381 0.04943,-1.67021 -0.110582,-0.20662 -0.597046,-0.28705 -1.030419,-0.17036 -0.893989,0.24073 -1.293212,1.41516 -0.711099,2.09191 0.174887,0.20331 0.261861,0.23316 0.6794,0.23316 0.449123,0 0.464027,0.006 0.240164,0.10202 -0.319514,0.13657 -0.567378,0.13377 -0.912141,-0.0103 -0.999865,-0.41777 -0.748102,-2.12081 0.368602,-2.49338 0.31656,-0.10562 0.892616,-0.12296 1.384366,-0.0417 l 0.3175,0.0525 0.0012,0.94142 c 0.0014,1.04878 0.08491,1.31654 0.450814,1.44522 0.556112,0.19558 1.02094,-0.45318 1.026328,-1.43244 0.0042,-0.76427 -0.196892,-1.29311 -0.646021,-1.69887 -0.52052,-0.47026 -0.847645,-0.58102 -1.729906,-0.58572 -0.71753,-0.004 -0.8105,0.0163 -1.35148,0.29223 -0.695511,0.35478 -1.139944,0.88662 -1.341666,1.60555 -0.407643,1.45283 0.165921,2.767 1.378582,3.15864 0.507674,0.16396 1.533304,0.19148 2.117441,0.0568 0.466777,-0.10762 0.559673,-0.0403 0.123765,0.0897 -0.439607,0.13109 -1.77426,0.18186 -2.168254,0.0825 z m -4.519465,-2.83419 c -2.59e-4,-0.4191 0.01406,-0.60122 0.03181,-0.40472 0.01776,0.19651 0.01797,0.53941 4.69e-4,0.762 -0.0175,0.2226 -0.03203,0.0618 -0.03228,-0.35728 z"
         id="path58"
         inkscape:connector-curvature="0" />
    </g>
  </g>
</svg>
