<?xml version="1.0" encoding="UTF-8" standalone="no"?>
<!-- Created with Inkscape (http://www.inkscape.org/) -->

<svg
   xmlns:dc="http://purl.org/dc/elements/1.1/"
   xmlns:cc="http://creativecommons.org/ns#"
   xmlns:rdf="http://www.w3.org/1999/02/22-rdf-syntax-ns#"
   xmlns:svg="http://www.w3.org/2000/svg"
   xmlns="http://www.w3.org/2000/svg"
   xmlns:sodipodi="http://sodipodi.sourceforge.net/DTD/sodipodi-0.dtd"
   xmlns:inkscape="http://www.inkscape.org/namespaces/inkscape"
   width="67"
   height="67"
   viewBox="0 0 17.727083 17.727084"
   version="1.1"
   id="svg78"
   inkscape:version="0.92.1 r15371"
   sodipodi:docname="decontos_out.svg">
  <defs
     id="defs72" />
  <sodipodi:namedview
     id="base"
     pagecolor="#ffffff"
     bordercolor="#666666"
     borderopacity="1.0"
     inkscape:pageopacity="0.0"
     inkscape:pageshadow="2"
     inkscape:zoom="0.35"
     inkscape:cx="363.0013"
     inkscape:cy="-401.63712"
     inkscape:document-units="mm"
     inkscape:current-layer="layer1"
     showgrid="false"
     units="px"
     fit-margin-top="0"
     fit-margin-left="0"
     fit-margin-right="0"
     fit-margin-bottom="0"
     inkscape:window-width="1600"
     inkscape:window-height="838"
     inkscape:window-x="-8"
     inkscape:window-y="-8"
     inkscape:window-maximized="1" />
  <metadata
     id="metadata75">
    <rdf:RDF>
      <cc:Work
         rdf:about="">
        <dc:format>image/svg+xml</dc:format>
        <dc:type
           rdf:resource="http://purl.org/dc/dcmitype/StillImage" />
        <dc:title></dc:title>
      </cc:Work>
    </rdf:RDF>
  </metadata>
  <g
     inkscape:label="Camada 1"
     inkscape:groupmode="layer"
     id="layer1"
     transform="translate(-9.7892391,-24.839754)">
    <g
       id="g91"
       transform="matrix(1.4882673,0,0,1.5765061,-335.72084,-365.38402)">
      <path
         style="fill:#d9dbe4;stroke-width:0.08466667"
         d="m 236.29199,258.67039 c -1.12177,-0.35198 -1.36633,-1.98916 -0.41652,-2.78837 0.58018,-0.48819 1.3367,-0.51228 2.0555,-0.0654 l 0.43211,0.26861 0.58563,-0.40379 c 0.3221,-0.22208 0.6033,-0.43237 0.62489,-0.46731 0.0419,-0.0678 -0.59643,-0.5602 -1.03794,-0.80053 -0.26197,-0.14259 -0.27136,-0.1412 -0.53302,0.079 -0.96909,0.81544 -2.55028,0.18296 -2.69228,-1.07693 -0.0659,-0.58425 0.0412,-0.9559 0.38525,-1.33716 0.38104,-0.42228 0.72235,-0.57468 1.28704,-0.57468 0.83196,0 1.44592,0.51956 1.62546,1.37556 l 0.0974,0.4644 2.54405,1.72586 c 1.39922,0.94922 2.61302,1.79391 2.69732,1.8771 0.2374,0.23426 0.10293,0.31442 -0.52743,0.31442 h -0.57988 l -1.08729,-0.7186 c -0.59801,-0.39522 -1.13821,-0.71907 -1.20045,-0.71966 -0.0622,-5.9e-4 -0.50606,0.26881 -0.98628,0.59868 -0.84033,0.57723 -0.87521,0.6136 -0.9284,0.96832 -0.0568,0.37883 -0.38394,0.95013 -0.62831,1.09725 -0.48721,0.29333 -1.14303,0.36334 -1.71686,0.1833 z m 1.15952,-1.02444 c 0.27494,-0.27495 0.27494,-0.66409 0,-0.93903 -0.43353,-0.43354 -1.14685,-0.14889 -1.14685,0.45765 0,0.62981 0.70324,0.92499 1.14685,0.48138 z m -0.1865,-3.86552 c 0.3955,-0.1802 0.50075,-0.6792 0.21884,-1.03758 -0.22388,-0.28462 -0.75093,-0.31267 -1.00985,-0.0538 -0.25893,0.25892 -0.23087,0.78597 0.0538,1.00985 0.25146,0.1978 0.43696,0.2183 0.73726,0.0815 z m -4.30786,2.6286 c -0.14145,-0.0411 -0.37005,-0.1926 -0.508,-0.33659 l -0.25082,-0.2618 v -3.83995 -3.83995 l 0.19352,-0.20599 c 0.36162,-0.38493 0.56801,-0.40032 5.36805,-0.40032 5.11789,0 5.14827,0.003 5.50608,0.5786 0.18238,0.2933 0.19459,0.4099 0.22155,2.11678 0.0157,0.9935 0.005,1.90033 -0.0239,2.01516 -0.0485,0.19306 -0.0857,0.20687 -0.49421,0.18329 l -0.4418,-0.0255 -0.0423,-1.143 -0.0423,-1.143 -4.67784,-0.0219 -4.67783,-0.0219 v 2.60845 c 0,1.9159 0.027,2.63542 0.1016,2.71005 0.0605,0.0605 0.35184,0.1016 0.71967,0.1016 0.48206,0 0.61806,0.0269 0.61806,0.12216 0,0.14189 -0.3319,0.73763 -0.46188,0.82904 -0.11827,0.0832 -0.78719,0.0679 -1.10763,-0.0253 z m 0.82351,-1.59159 c -0.0735,-0.0466 -0.1021,-0.21075 -0.0847,-0.48553 l 0.0263,-0.41515 0.36609,-0.0263 c 0.43742,-0.0315 0.60758,0.0871 0.60758,0.42328 0,0.41655 -0.13648,0.57689 -0.48982,0.57543 -0.17298,-7.1e-4 -0.36447,-0.033 -0.42552,-0.0717 z m 7.7945,-0.27542 c -0.15134,-0.0969 -0.27516,-0.24114 -0.27516,-0.32049 0,-0.0892 0.29741,-0.33547 0.7787,-0.6449 0.69788,-0.44867 0.8319,-0.50352 1.29117,-0.52838 0.5464,-0.0296 0.75967,0.0456 0.68174,0.24028 -0.0679,0.16956 -1.88462,1.43287 -2.05811,1.43114 -0.0787,-7.9e-4 -0.267,-0.0807 -0.41834,-0.17765 z m -7.85904,-1.3729 c -0.0257,-0.0671 -0.0349,-0.28827 -0.0203,-0.4915 l 0.0265,-0.36952 h 0.42129 c 0.3833,0 0.42868,0.021 0.50318,0.23283 0.0525,0.14937 0.0527,0.3163 4.3e-4,0.46567 -0.0713,0.20377 -0.13155,0.23606 -0.48287,0.25867 -0.28942,0.0186 -0.41449,-0.008 -0.44824,-0.0961 z m 7.19488,-0.005 c -0.0248,-0.0645 -0.0331,-0.2836 -0.0185,-0.48683 l 0.0265,-0.36952 0.36609,-0.0263 c 0.20135,-0.0145 0.42042,0.0188 0.48683,0.0739 0.327,0.27139 -0.0657,0.92614 -0.5554,0.92614 -0.1439,0 -0.28066,-0.0525 -0.30552,-0.11731 z m -7.19488,-1.60399 c -0.0257,-0.0671 -0.0349,-0.28827 -0.0203,-0.49151 l 0.0265,-0.36952 h 0.42129 c 0.3833,0 0.42868,0.021 0.50318,0.23283 0.0525,0.14937 0.0527,0.3163 4.3e-4,0.46567 -0.0713,0.20377 -0.13155,0.23606 -0.48287,0.25867 -0.28942,0.0186 -0.41449,-0.008 -0.44824,-0.0961 z m 7.19488,-0.005 c -0.0248,-0.0645 -0.0331,-0.28359 -0.0185,-0.48683 l 0.0265,-0.36952 0.36609,-0.0263 c 0.20135,-0.0145 0.42042,0.0188 0.48683,0.0739 0.14677,0.1218 0.15982,0.68386 0.0191,0.82454 -0.14373,0.14373 -0.82354,0.13159 -0.88006,-0.0157 z"
         id="path105"
         inkscape:connector-curvature="0" />
      <path
         style="fill:#c8cad8;stroke-width:0.08466667"
         d="m 236.35261,258.65118 c -0.63015,-0.23081 -0.97928,-0.75658 -0.97928,-1.47475 0,-0.70109 0.33448,-1.22005 0.95288,-1.47844 0.595,-0.24861 1.25844,-0.14251 1.69136,0.27048 0.19466,0.18569 0.26163,0.20616 0.42333,0.12937 0.29456,-0.13988 1.25043,-0.86128 1.25043,-0.94371 0,-0.087 -1.28214,-0.94103 -1.41271,-0.94103 -0.0498,0 -0.14285,0.0632 -0.20676,0.14041 -0.1736,0.20979 -0.75312,0.44828 -1.09441,0.45039 -0.16548,0.001 -0.49941,-0.0971 -0.74206,-0.21799 -1.30247,-0.64905 -1.11093,-2.59765 0.29032,-2.95344 1.01069,-0.25663 1.90258,0.35713 2.04327,1.40607 0.0431,0.32112 0.0795,0.34985 2.74685,2.16294 1.48677,1.01062 2.72232,1.86842 2.74568,1.90622 0.0234,0.0378 -0.24618,0.0687 -0.59898,0.0687 h -0.64146 l -1.07753,-0.71967 c -0.59265,-0.39581 -1.13491,-0.71829 -1.20504,-0.71661 -0.0701,0.002 -0.53708,0.28876 -1.03767,0.63794 -0.77484,0.54048 -0.91044,0.66906 -0.91203,0.86478 -0.002,0.30594 -0.26564,0.86234 -0.51729,1.09369 -0.4641,0.42665 -1.09684,0.54246 -1.7189,0.31462 z m 1.10957,-0.91543 c 0.33582,-0.28886 0.33582,-0.82978 0,-1.11864 -0.50855,-0.43744 -1.2368,-0.10811 -1.2368,0.55932 0,0.66719 0.72843,0.99661 1.2368,0.55932 z m -0.18148,-3.8778 c 0.23901,-0.1089 0.4633,-0.46464 0.4633,-0.73482 0,-0.0919 -0.0986,-0.28426 -0.2192,-0.42754 -0.61036,-0.72538 -1.71297,0.13509 -1.16874,0.91208 0.22702,0.32412 0.56298,0.41506 0.92464,0.25028 z m -4.44135,2.40818 c -0.15967,-0.0814 -0.36922,-0.2556 -0.46567,-0.38708 -0.17098,-0.23308 -0.17535,-0.33043 -0.17535,-3.90962 0,-3.59054 0.004,-3.6758 0.17695,-3.90962 0.37466,-0.50615 0.2305,-0.49305 5.42601,-0.49305 4.67176,0 4.76044,0.003 4.9901,0.17457 0.5752,0.42945 0.5803,0.45104 0.60982,2.58229 l 0.0269,1.94057 -0.21113,0.0962 c -0.11613,0.0529 -0.3092,0.0716 -0.42905,0.0415 l -0.21791,-0.0547 -0.001,-1.07788 c -6.8e-4,-0.59284 -0.0317,-1.12584 -0.0689,-1.18445 -0.0533,-0.084 -1.06246,-0.10192 -4.76121,-0.0847 l -4.69355,0.0219 -0.0224,2.63859 c -0.0262,3.08771 -0.0779,2.90707 0.83275,2.90707 0.66883,0 0.70116,0.0461 0.3719,0.53068 -0.20186,0.29706 -0.24117,0.31598 -0.65617,0.31586 -0.25289,-8e-5 -0.56545,-0.0634 -0.73176,-0.14817 z m 0.98176,-1.51681 c -0.031,-0.0311 -0.0565,-0.22363 -0.0565,-0.42797 v -0.37153 l 0.40217,0.0258 c 0.34876,0.0224 0.40591,0.0523 0.43035,0.22492 0.0155,0.10951 0.005,0.29049 -0.0228,0.40217 -0.0426,0.1699 -0.1037,0.20305 -0.37391,0.20305 -0.17761,0 -0.34834,-0.0254 -0.37938,-0.0564 z m 7.78664,-0.28837 c -0.1227,-0.0965 -0.22309,-0.21151 -0.22309,-0.25556 0,-0.044 0.34707,-0.30798 0.77127,-0.58652 0.69804,-0.45836 0.81394,-0.50644 1.22074,-0.50644 0.66314,0 0.76243,0.0592 0.48156,0.28704 -0.61058,0.49534 -1.73265,1.23696 -1.87152,1.23696 -0.0857,0 -0.25627,-0.079 -0.37896,-0.17548 z m -7.84309,-1.47552 c -0.0508,-0.13376 -0.0508,-0.28957 0,-0.42333 0.0674,-0.17716 0.13577,-0.21167 0.41963,-0.21167 0.29115,0 0.34667,0.03 0.39227,0.21167 0.0292,0.11641 0.0292,0.30691 0,0.42333 -0.0456,0.18171 -0.10112,0.21167 -0.39227,0.21167 -0.28386,0 -0.35227,-0.0345 -0.41963,-0.21167 z m 7.23038,0.0927 c -0.0251,-0.0654 -0.0334,-0.2464 -0.0185,-0.40217 0.0264,-0.27521 0.0379,-0.28323 0.40813,-0.28323 0.3506,0 0.3831,0.0182 0.4073,0.22771 0.0166,0.14399 -0.0378,0.29184 -0.14817,0.40216 -0.1995,0.19951 -0.58097,0.23215 -0.64875,0.0555 z m -7.21385,-1.8919 0.0258,-0.40216 0.35703,-0.0259 c 0.32187,-0.0233 0.36238,-0.005 0.41134,0.1905 0.0299,0.11902 0.0304,0.31165 0.001,0.42806 -0.0469,0.18686 -0.0981,0.21167 -0.43715,0.21167 h -0.38402 l 0.0258,-0.40217 z m 7.21573,0.28814 c -0.0261,-0.0681 -0.0353,-0.2513 -0.0204,-0.40708 0.0264,-0.27521 0.0379,-0.28322 0.40813,-0.28322 h 0.381 v 0.381 0.381 l -0.3606,0.0261 c -0.25647,0.0185 -0.37434,-0.01 -0.40814,-0.0978 z"
         id="path103"
         inkscape:connector-curvature="0" />
      <path
         style="fill:#bec0d0;stroke-width:0.08466667"
         d="m 236.44328,258.66554 c -1.15507,-0.42755 -1.44522,-1.8504 -0.53949,-2.64564 0.60586,-0.53195 1.36144,-0.57322 2.00182,-0.10933 0.18971,0.13742 0.39288,0.24865 0.45149,0.24717 0.17839,-0.005 1.42734,-0.93116 1.37316,-1.01882 -0.0827,-0.13381 -1.29192,-0.92595 -1.41094,-0.92428 -0.0603,8.4e-4 -0.28111,0.11841 -0.49066,0.26125 -0.34774,0.23704 -0.42986,0.25705 -0.94067,0.2292 -0.68473,-0.0373 -1.10734,-0.31526 -1.36495,-0.89762 -0.46202,-1.0445 0.30373,-2.21904 1.44673,-2.21904 0.6903,0 1.39595,0.55033 1.49591,1.16666 0.0281,0.17325 0.0841,0.39667 0.12445,0.49649 0.0418,0.10348 1.20401,0.9517 2.70394,1.97348 1.44683,0.9856 2.63059,1.82786 2.63059,1.87169 0,0.0438 -0.2284,0.0797 -0.50756,0.0797 -0.49611,0 -0.53418,-0.0173 -1.68823,-0.76732 l -1.18067,-0.76731 -0.91527,0.60815 c -1.03544,0.68801 -1.12693,0.77856 -1.12693,1.11537 0,0.91642 -1.14675,1.63927 -2.06272,1.30022 z m 1.08152,-0.98761 c 0.64432,-0.76572 -0.34699,-1.71512 -1.10766,-1.06082 -0.33582,0.28886 -0.33582,0.82978 0,1.11864 0.35353,0.30409 0.82379,0.27954 1.10766,-0.0578 z m -0.0283,-3.96632 c 0.40593,-0.40593 0.31945,-0.97805 -0.18748,-1.24019 -0.66048,-0.34155 -1.39381,0.3931 -1.05207,1.05396 0.26254,0.5077 0.83245,0.59333 1.23955,0.18623 z m -4.76208,2.4735 c -0.12424,-0.0771 -0.30522,-0.28128 -0.40217,-0.45378 -0.17056,-0.30347 -0.17626,-0.42528 -0.17626,-3.7619 0,-3.34314 0.005,-3.4579 0.17731,-3.76376 0.351,-0.62453 0.097,-0.59661 5.42375,-0.59626 4.58221,3.1e-4 4.78131,0.007 5.04166,0.16559 0.5019,0.30603 0.53328,0.46069 0.53328,2.62876 v 1.95641 l -0.35984,-0.026 -0.35983,-0.026 -0.0423,-1.143 -0.0423,-1.143 -4.73589,-0.0219 c -3.73262,-0.0173 -4.75022,6.9e-4 -4.80354,0.0847 -0.0372,0.0586 -0.0682,1.23155 -0.0689,2.60654 -0.002,2.99188 -0.0351,2.87634 0.83606,2.87634 0.31557,0 0.59756,0.0238 0.62665,0.0529 0.0291,0.0291 -0.0312,0.20025 -0.13405,0.38035 l -0.18695,0.32745 -0.55034,-0.002 c -0.36232,-10e-4 -0.6275,-0.0495 -0.77623,-0.14175 z m 1.13021,-1.45276 c -0.07,-0.0444 -0.1016,-0.19406 -0.0847,-0.40087 0.0265,-0.32411 0.0331,-0.33005 0.36569,-0.33005 0.33257,0 0.33916,0.006 0.3657,0.33005 0.0286,0.34922 -0.0663,0.47169 -0.3657,0.47169 -0.0931,0 -0.21959,-0.0319 -0.28102,-0.0708 z m 7.79519,-0.27499 c -0.15134,-0.0969 -0.27517,-0.20668 -0.27517,-0.2439 0,-0.0372 0.32952,-0.28113 0.73226,-0.54202 0.6937,-0.44936 0.76059,-0.47434 1.27,-0.47434 0.29576,0 0.53774,0.0303 0.53774,0.0674 0,0.0784 -1.81109,1.37262 -1.91789,1.37049 -0.0395,-7.8e-4 -0.1956,-0.0807 -0.34694,-0.17764 z m -7.79519,-1.33368 c -0.07,-0.0444 -0.1016,-0.19406 -0.0847,-0.40087 0.0265,-0.32411 0.0331,-0.33005 0.36569,-0.33005 0.33257,0 0.33916,0.006 0.3657,0.33005 0.0286,0.34923 -0.0663,0.47169 -0.3657,0.47169 -0.0931,0 -0.21959,-0.0319 -0.28102,-0.0708 z m 7.20252,0.0173 c -0.0593,-0.0239 -0.10583,-0.18792 -0.10583,-0.3727 0,-0.27851 0.032,-0.33802 0.20497,-0.38144 0.36102,-0.0906 0.51264,-0.0139 0.54062,0.27361 0.0354,0.36404 -0.30142,0.61706 -0.63976,0.48053 z m -7.24202,-1.605 c -0.0333,-0.0333 -0.0605,-0.2058 -0.0605,-0.38342 0,-0.27105 0.0329,-0.33121 0.20497,-0.37439 0.40946,-0.10277 0.5147,-0.0234 0.5147,0.38805 0,0.37364 -0.005,0.38025 -0.29936,0.40503 -0.16465,0.0139 -0.32657,-0.002 -0.35983,-0.0353 z m 7.19666,0 c -0.0333,-0.0333 -0.0605,-0.2058 -0.0605,-0.38342 0,-0.27105 0.0329,-0.33121 0.20497,-0.37439 0.40946,-0.10277 0.5147,-0.0234 0.5147,0.38805 0,0.37364 -0.005,0.38025 -0.29936,0.40503 -0.16465,0.0139 -0.32658,-0.002 -0.35984,-0.0353 z"
         id="path101"
         inkscape:connector-curvature="0" />
      <path
         style="fill:#b0b4c7;stroke-width:0.08466667"
         d="m 236.60559,258.72354 c -0.0906,-0.0231 -0.30507,-0.1305 -0.47659,-0.23877 -0.73924,-0.46666 -0.951,-1.46649 -0.45793,-2.16213 0.33417,-0.47145 0.72303,-0.67032 1.30961,-0.66976 0.45593,4.3e-4 0.54765,0.0371 1.12942,0.45098 l 0.21798,0.15509 0.72395,-0.49376 c 0.39817,-0.27157 0.72396,-0.53567 0.72396,-0.58688 1e-5,-0.0949 -1.376,-1.04988 -1.5128,-1.04988 -0.0413,0 -0.12487,0.0599 -0.18566,0.13319 -0.19385,0.23357 -0.73848,0.45948 -1.10776,0.45948 -0.75097,0 -1.38833,-0.54508 -1.55098,-1.32642 -0.0863,-0.41452 0.10139,-0.95702 0.45258,-1.30821 0.92895,-0.92896 2.43098,-0.41054 2.61931,0.90404 l 0.0576,0.4024 2.64118,1.78593 c 1.45265,0.98226 2.6301,1.82402 2.61655,1.87059 -0.0135,0.0466 -0.23052,0.0834 -0.48218,0.0818 -0.43129,-0.003 -0.51796,-0.0435 -1.51003,-0.71043 -0.57886,-0.38917 -1.11226,-0.72285 -1.18533,-0.7415 -0.0731,-0.0187 -0.57095,0.26293 -1.10641,0.62576 -0.96685,0.65515 -0.97392,0.66238 -1.02867,1.05155 -0.0694,0.49302 -0.16065,0.66266 -0.53223,0.9889 -0.40148,0.35251 -0.90451,0.49278 -1.35562,0.37801 z m 0.72595,-0.83307 c 0.91446,-0.47289 0.25396,-1.8663 -0.69779,-1.47207 -0.60296,0.24975 -0.6558,1.10861 -0.0898,1.45974 0.28506,0.17684 0.46406,0.17965 0.78761,0.0123 z m 0.20464,-4.13919 c 0.33171,-0.33172 0.30942,-0.83259 -0.052,-1.16802 -0.34872,-0.32365 -0.76865,-0.31806 -1.10137,0.0147 -0.32439,0.32438 -0.33498,0.73621 -0.0283,1.10068 0.18439,0.21913 0.27912,0.2605 0.59652,0.2605 0.28772,0 0.42667,-0.0494 0.58514,-0.20782 z m -4.79616,2.3863 c -0.58391,-0.39008 -0.58375,-0.3889 -0.58389,-4.19352 -1.5e-4,-3.76387 -0.008,-3.70324 0.53694,-4.11892 l 0.28324,-0.21604 h 4.7939 4.79389 l 0.28885,0.25361 c 0.46214,0.40576 0.48477,0.53297 0.45959,2.58321 l -0.0229,1.86218 h -0.33866 -0.33867 l -0.0237,-1.1396 c -0.0163,-0.78003 -0.0563,-1.16092 -0.127,-1.20718 -0.15808,-0.10347 -9.31043,-0.0677 -9.43775,0.0369 -0.13004,0.10682 -0.15182,5.1962 -0.0231,5.4002 0.0544,0.0862 0.27632,0.14061 0.69055,0.16933 0.33574,0.0233 0.62279,0.0804 0.63791,0.127 0.0151,0.0466 -0.048,0.2085 -0.14027,0.35984 -0.15858,0.26011 -0.19493,0.27516 -0.66448,0.27516 -0.37548,0 -0.56695,-0.0469 -0.78441,-0.19218 z m 1.0596,-1.53217 c -0.0266,-0.0693 -0.0358,-0.21449 -0.0205,-0.32266 0.0235,-0.16602 0.0848,-0.20075 0.39312,-0.22295 l 0.36525,-0.0263 -0.0266,0.32263 c -0.0252,0.30627 -0.0427,0.32397 -0.34476,0.34895 -0.22181,0.0183 -0.33282,-0.0118 -0.36653,-0.0997 z m 7.93268,-0.14523 c -0.15146,-0.0921 -0.25996,-0.21397 -0.2411,-0.27078 0.0189,-0.0568 0.35319,-0.30333 0.74296,-0.5478 0.62356,-0.39113 0.76253,-0.4445 1.15725,-0.4445 0.24672,0 0.44859,0.0345 0.44859,0.0767 0,0.0613 -1.36993,1.08469 -1.74165,1.3011 -0.0499,0.029 -0.21458,-0.0226 -0.36605,-0.1147 z m -7.93268,-1.46344 c -0.0266,-0.0693 -0.0358,-0.21449 -0.0205,-0.32265 0.0239,-0.16835 0.0766,-0.19666 0.36653,-0.19666 0.33061,0 0.33867,0.007 0.33867,0.29633 0,0.28143 -0.016,0.29766 -0.31818,0.32265 -0.22181,0.0183 -0.33282,-0.0118 -0.36653,-0.0997 z m 7.19469,-0.005 c -0.0255,-0.0665 -0.0338,-0.20934 -0.0185,-0.3175 0.0234,-0.16547 0.0849,-0.20079 0.3877,-0.22269 0.3497,-0.0253 0.35983,-0.0188 0.35983,0.22985 0,0.16634 -0.0573,0.28656 -0.16377,0.34353 -0.23303,0.12472 -0.51092,0.1084 -0.56525,-0.0332 z m -7.19667,-1.60867 c -0.0255,-0.0665 -0.0338,-0.20934 -0.0185,-0.3175 0.0239,-0.16834 0.0766,-0.19666 0.36653,-0.19666 0.33024,0 0.33932,0.008 0.36495,0.3175 l 0.0263,0.3175 h -0.34644 c -0.22199,0 -0.36309,-0.0434 -0.39281,-0.12084 z m 7.19667,0 c -0.0255,-0.0665 -0.0338,-0.20934 -0.0185,-0.3175 0.0234,-0.16547 0.0849,-0.20078 0.3877,-0.22269 l 0.35983,-0.026 v 0.34354 0.34353 h -0.34132 c -0.21757,0 -0.35814,-0.0438 -0.3877,-0.12084 z"
         id="path99"
         inkscape:connector-curvature="0" />
      <path
         style="fill:#9da1b9;stroke-width:0.08466667"
         d="m 236.728,258.72175 c -0.26623,-0.0393 -0.82159,-0.41798 -1.03526,-0.70598 -0.35053,-0.47247 -0.29656,-1.34394 0.11204,-1.80932 0.53805,-0.6128 1.39821,-0.70425 2.08313,-0.22147 0.20297,0.14306 0.40975,0.26012 0.4595,0.26012 0.0939,0 1.3938,-0.89123 1.46287,-1.00297 0.0216,-0.0349 0.0131,-0.1028 -0.0187,-0.1509 -0.10515,-0.15877 -1.35977,-0.9628 -1.50237,-0.9628 -0.0769,0 -0.25178,0.0942 -0.38867,0.20944 -0.95846,0.80648 -2.44254,0.0978 -2.44254,-1.16642 0,-0.89636 0.7072,-1.54141 1.62155,-1.47905 0.78277,0.0534 1.25927,0.51565 1.38316,1.34182 l 0.0578,0.38523 2.61419,1.77266 c 1.4378,0.97496 2.61564,1.80123 2.61742,1.83615 0.002,0.0349 -0.18968,0.0635 -0.42547,0.0635 -0.39529,0 -0.51441,-0.0561 -1.52835,-0.71966 -0.60481,-0.39582 -1.16462,-0.71967 -1.24403,-0.71967 -0.0794,0 -0.56906,0.28379 -1.08813,0.63064 -0.91092,0.60869 -0.94582,0.6433 -1.00303,0.99483 -0.0914,0.56142 -0.28622,0.90008 -0.66704,1.15932 -0.36192,0.24638 -0.70573,0.33797 -1.06804,0.28453 z m 0.66505,-0.8193 c 0.38173,-0.1974 0.5397,-0.70295 0.34104,-1.09142 -0.26086,-0.51008 -0.89099,-0.63843 -1.32822,-0.27053 -0.78804,0.6631 0.0644,1.83914 0.98718,1.36195 z m 0.14775,-4.14655 c 0.49397,-0.49397 0.32444,-1.18383 -0.34524,-1.40484 -0.62272,-0.20552 -1.2669,0.43147 -1.06254,1.05069 0.22415,0.67921 0.91015,0.85178 1.40778,0.35415 z m -4.43783,2.49009 c -0.15439,-0.0365 -0.37445,-0.1545 -0.48902,-0.26214 -0.4573,-0.42961 -0.45795,-0.43537 -0.45795,-4.01442 0,-3.69066 -0.01,-3.6228 0.57493,-4.10455 l 0.31031,-0.25578 h 4.76438 c 2.8903,0 4.76438,0.0311 4.76438,0.079 0,0.0434 0.0788,0.10398 0.17517,0.13456 0.0964,0.0306 0.24861,0.17602 0.33835,0.3232 0.14847,0.2435 0.16321,0.44118 0.16349,2.19378 l 3.2e-4,1.92616 h -0.29633 -0.29634 l -0.001,-1.0795 c -6.8e-4,-0.59372 -0.0317,-1.12744 -0.0689,-1.18604 -0.0533,-0.084 -1.07937,-0.10191 -4.84587,-0.0847 l -4.77823,0.0219 -0.0224,2.70133 c -0.0262,3.16773 -0.067,3.01367 0.79749,3.01367 0.59958,0 0.65968,0.0755 0.36173,0.45425 -0.18603,0.2365 -0.43576,0.27149 -0.99421,0.13931 z m 0.80669,-1.57745 c -0.0332,-0.0332 -0.0603,-0.18733 -0.0603,-0.34255 0,-0.26701 0.0162,-0.28223 0.30144,-0.28223 0.29657,0 0.30102,0.005 0.27517,0.3175 -0.0222,0.26849 -0.0594,0.32137 -0.24111,0.34256 -0.11816,0.0138 -0.24199,-0.002 -0.27517,-0.0353 z m 7.80188,-0.28643 -0.19988,-0.16965 0.23334,-0.19377 c 0.12834,-0.10657 0.43852,-0.31811 0.68928,-0.47009 0.3903,-0.23655 0.52125,-0.2726 0.90966,-0.25041 l 0.45372,0.0259 -0.85665,0.61383 c -0.47116,0.33761 -0.89556,0.61383 -0.94312,0.61383 -0.0476,0 -0.17641,-0.0763 -0.28635,-0.16965 z m -7.82705,-1.38485 c -0.0267,-0.0696 -0.036,-0.21501 -0.0207,-0.32317 0.0218,-0.15371 0.0891,-0.20254 0.30848,-0.2236 0.27731,-0.0266 0.28031,-0.0231 0.254,0.29634 -0.0232,0.28203 -0.0564,0.32669 -0.25993,0.3501 -0.14806,0.017 -0.25106,-0.0194 -0.28186,-0.0997 z m 7.19449,-0.006 c -0.10645,-0.2774 0.004,-0.51358 0.25416,-0.54211 0.38256,-0.0437 0.49866,0.21581 0.22086,0.49362 -0.1982,0.1982 -0.4093,0.21975 -0.47502,0.0485 z m -7.21359,-1.80533 c 0.024,-0.28986 0.0502,-0.31981 0.30144,-0.34403 0.26965,-0.026 0.27517,-0.0196 0.27517,0.3175 0,0.33785 -0.005,0.34403 -0.30145,0.34403 -0.29656,0 -0.30102,-0.005 -0.27516,-0.3175 z m 7.21359,0.19666 c -0.0255,-0.0665 -0.0338,-0.20934 -0.0185,-0.3175 0.0389,-0.27483 0.53641,-0.33469 0.61899,-0.0745 0.0968,0.30493 -0.0261,0.51282 -0.30316,0.51282 -0.13928,0 -0.27159,-0.0538 -0.29732,-0.12084 z"
         id="path97"
         inkscape:connector-curvature="0" />
      <path
         style="fill:#9498b3;stroke-width:0.08466667"
         d="m 236.51075,258.6248 c 0.0257,-0.0416 -0.044,-0.0984 -0.15491,-0.12625 -0.28363,-0.0712 -0.70447,-0.57976 -0.81288,-0.98234 -0.17065,-0.63377 0.23207,-1.43999 0.84641,-1.69446 0.43634,-0.18074 1.13238,-0.0709 1.51895,0.23981 0.18356,0.14751 0.36755,0.2682 0.40887,0.2682 0.17788,0 1.54338,-1.03458 1.54214,-1.16841 -0.001,-0.12455 -1.37483,-1.11759 -1.54597,-1.11759 -0.031,0 -0.23208,0.12383 -0.44679,0.27517 -0.33966,0.23941 -0.45911,0.27517 -0.91924,0.27517 -0.44884,0 -0.5759,-0.0359 -0.83985,-0.23721 -1.03831,-0.79196 -0.68445,-2.36776 0.59227,-2.6375 0.80526,-0.17013 1.72158,0.56289 1.72158,1.3772 0,0.13398 0.0707,0.30759 0.15715,0.38581 0.0864,0.0782 1.26653,0.89792 2.62245,1.82156 1.35592,0.92363 2.44091,1.70374 2.41108,1.73357 -0.0298,0.0298 -0.17622,0.0542 -0.32531,0.0542 -0.23877,0 -1.34916,-0.63593 -2.41989,-1.3859 -0.10844,-0.076 -0.24695,-0.1381 -0.30781,-0.1381 -0.0609,0 -0.56674,0.30556 -1.12417,0.67901 -0.94334,0.632 -1.01363,0.69794 -1.01536,0.9525 -0.004,0.5498 -0.54769,1.33183 -0.92637,1.33183 -0.0538,0 -0.0742,0.0381 -0.0454,0.0847 0.0327,0.0529 -0.14189,0.0847 -0.46566,0.0847 -0.2849,0 -0.49696,-0.034 -0.47125,-0.0756 z m 0.75394,-0.59652 c 0.7456,-0.28347 0.8101,-1.27878 0.10738,-1.65722 -0.5803,-0.31251 -1.32141,0.1222 -1.32141,0.7751 0,0.3847 0.11844,0.59438 0.44991,0.79648 0.30193,0.1841 0.45888,0.20169 0.76412,0.0856 z m 0.21121,-4.12692 c 0.10867,-0.0686 0.25342,-0.25842 0.32167,-0.42178 0.24608,-0.58894 -0.21016,-1.21274 -0.88754,-1.2135 -0.39679,-4.4e-4 -0.85949,0.46226 -0.85905,0.85905 8.7e-4,0.78384 0.75895,1.1968 1.42492,0.77623 z m -4.6258,2.20211 c -0.27824,-0.13713 -0.52477,-0.4886 -0.52477,-0.74817 0,-0.0749 -0.0381,-0.11265 -0.0847,-0.0839 -0.0559,0.0345 -0.0847,-1.08734 -0.0847,-3.302 0,-2.21466 0.0288,-3.33655 0.0847,-3.302 0.0466,0.0288 0.0847,-0.009 0.0847,-0.0839 0,-0.25509 0.24949,-0.61961 0.49995,-0.73047 0.13741,-0.0608 0.23129,-0.14061 0.20861,-0.17729 -0.0227,-0.0367 2.09463,-0.0667 4.70511,-0.0667 2.61048,0 4.74657,0.0286 4.74686,0.0635 2.6e-4,0.0349 0.11618,0.12931 0.25752,0.20974 0.45728,0.26024 0.50996,0.53679 0.48446,2.54322 l -0.0228,1.79787 h -0.254 -0.254 l -0.0238,-1.1396 c -0.0163,-0.78142 -0.0562,-1.16022 -0.127,-1.2052 -0.0568,-0.0361 -2.21971,-0.0662 -4.80649,-0.0669 -3.54665,-9.8e-4 -4.72821,0.0237 -4.80483,0.1003 -0.0747,0.0747 -0.1016,0.80131 -0.1016,2.74229 0,3.10645 -0.0282,3.00037 0.80772,3.03732 0.27754,0.0123 0.53142,0.0275 0.56418,0.0339 0.0327,0.006 -0.005,0.12564 -0.0847,0.26504 -0.13024,0.22887 -0.1853,0.25333 -0.56756,0.25207 -0.23284,-7.6e-4 -0.54914,-0.0634 -0.7029,-0.13916 z m 1.05567,-1.52348 c -0.031,-0.0311 -0.0564,-0.14535 -0.0564,-0.254 0,-0.16934 0.0423,-0.19756 0.29633,-0.19756 0.27282,0 0.29634,0.0202 0.29634,0.254 0,0.22246 -0.0298,0.254 -0.23989,0.254 -0.13194,0 -0.26529,-0.0254 -0.29634,-0.0564 z m 7.78141,-0.24171 c -0.0897,-0.0679 -0.14689,-0.13837 -0.127,-0.15664 0.0199,-0.0183 0.33631,-0.2282 0.70318,-0.46654 0.54419,-0.35354 0.73519,-0.43334 1.03717,-0.43334 0.20357,0 0.37013,0.0172 0.37013,0.0381 0,0.0868 -1.56118,1.14698 -1.68533,1.1445 -0.0743,-0.001 -0.20842,-0.0582 -0.29815,-0.12612 z m -7.78141,-1.36696 c -0.031,-0.031 -0.0564,-0.14535 -0.0564,-0.254 0,-0.16933 0.0423,-0.19756 0.29633,-0.19756 0.27282,0 0.29634,0.0202 0.29634,0.254 0,0.22246 -0.0298,0.254 -0.23989,0.254 -0.13194,0 -0.26529,-0.0254 -0.29634,-0.0564 z m 7.17084,-0.0706 c -0.0865,-0.22555 0.038,-0.381 0.3054,-0.381 0.1907,0 0.25665,0.0392 0.25665,0.1524 0,0.31378 -0.45789,0.50002 -0.56205,0.2286 z m -7.21174,-1.7145 c 0.0223,-0.19401 0.0727,-0.23725 0.30196,-0.25936 0.25633,-0.0247 0.27517,-0.009 0.27517,0.23283 0,0.24089 -0.0215,0.25937 -0.30196,0.25937 -0.27946,0 -0.29996,-0.0173 -0.27517,-0.23284 z m 7.21174,0.10584 c -0.0865,-0.22556 0.038,-0.381 0.3054,-0.381 0.22873,0 0.25665,0.0276 0.25665,0.254 0,0.22636 -0.0279,0.254 -0.25665,0.254 -0.15004,0 -0.27691,-0.0528 -0.3054,-0.127 z"
         id="path95"
         inkscape:connector-curvature="0" />
      <path
         style="fill:#8b90ad;stroke-width:0.08466667"
         d="m 236.601,258.61576 c 0.15849,-0.0681 0.15913,-0.0731 0.01,-0.0787 -0.49197,-0.0184 -1.06833,-0.75242 -1.06833,-1.36062 0,-0.40478 0.30389,-0.98085 0.61984,-1.17503 0.59544,-0.36594 1.20239,-0.31046 1.8001,0.16455 l 0.31484,0.25019 0.30478,-0.17889 c 0.67633,-0.39699 1.36304,-0.93956 1.36178,-1.07593 -0.001,-0.11658 -0.94187,-0.80121 -1.58546,-1.15375 -0.0591,-0.0323 -0.25563,0.0634 -0.44853,0.21838 -0.28741,0.23097 -0.42905,0.28124 -0.86855,0.30831 -0.44391,0.0273 -0.56976,0.002 -0.81368,-0.16558 -0.49795,-0.34155 -0.64278,-0.6117 -0.64278,-1.19896 0,-0.62827 0.20943,-0.98232 0.74172,-1.25388 0.42235,-0.21546 1.05939,-0.18334 1.40242,0.0707 0.34132,0.2528 0.60752,0.69389 0.60752,1.00667 0,0.17106 0.0737,0.35998 0.1905,0.48808 0.10478,0.11494 1.27635,0.94574 2.6035,1.84622 2.24458,1.52296 2.39316,1.63913 2.12872,1.66444 -0.23906,0.0229 -0.47095,-0.0966 -1.4576,-0.751 -0.79275,-0.5258 -1.21953,-0.76048 -1.31579,-0.72354 -0.0784,0.0301 -0.57448,0.34605 -1.10248,0.70217 -0.87094,0.58743 -0.96449,0.6756 -1.00831,0.95033 -0.0989,0.62001 -0.13958,0.71714 -0.41659,0.99415 -0.15587,0.15588 -0.40902,0.30853 -0.56255,0.33924 -0.23692,0.0474 -0.25413,0.0656 -0.11377,0.12052 0.1048,0.041 -0.0207,0.0647 -0.34263,0.0647 -0.35818,0 -0.45806,-0.0215 -0.33866,-0.0728 z m 1.02446,-0.79586 c 0.23599,-0.23599 0.28787,-0.35195 0.28787,-0.64347 0,-0.29152 -0.0519,-0.40747 -0.28787,-0.64347 -0.51555,-0.51555 -1.27122,-0.37584 -1.54781,0.28615 -0.26903,0.64386 0.17225,1.28865 0.8819,1.28865 0.31705,0 0.4245,-0.0464 0.66591,-0.28786 z m -0.0469,-3.9243 c 0.72093,-0.64421 0.13839,-1.85534 -0.80709,-1.67797 -0.31454,0.059 -0.68518,0.4185 -0.76515,0.74214 -0.21472,0.86894 0.90274,1.53407 1.57224,0.93583 z m -4.79767,2.10315 c -0.14526,-0.0886 -0.30718,-0.28462 -0.35983,-0.43565 -0.15347,-0.44023 -0.13164,-6.85751 0.0246,-7.23143 0.23659,-0.56625 0.10991,-0.55324 5.38727,-0.55324 h 4.754 l 0.28787,0.28787 0.28786,0.28786 v 1.91347 1.91347 h -0.21166 -0.21167 v -1.05141 c 0,-0.57828 -0.0231,-1.11168 -0.0514,-1.18534 -0.046,-0.11996 -0.55749,-0.13392 -4.90769,-0.13392 -4.77822,0 -4.85776,0.003 -4.9474,0.17024 -0.061,0.114 -0.083,1.03945 -0.0665,2.80157 l 0.0246,2.63134 0.19988,0.16176 c 0.14599,0.11814 0.33382,0.16176 0.69668,0.16176 h 0.49681 l -0.0965,0.21166 c -0.0862,0.1891 -0.1469,0.21164 -0.56968,0.21135 -0.31566,-1.7e-4 -0.56119,-0.0539 -0.73735,-0.16136 z m -0.58639,-4.02932 c 2e-5,-1.8161 0.0112,-2.547 0.0249,-1.62423 0.0137,0.92278 0.0137,2.40868 -4e-5,3.302 -0.0137,0.89333 -0.0249,0.13833 -0.0249,-1.67777 z m 1.79594,2.61056 c -0.031,-0.0311 -0.0564,-0.14535 -0.0564,-0.254 0,-0.15429 0.0464,-0.19756 0.21166,-0.19756 0.17874,0 0.21167,0.0395 0.21167,0.254 0,0.18986 -0.0392,0.254 -0.15522,0.254 -0.0854,0 -0.18062,-0.0254 -0.21167,-0.0564 z m 7.7814,-0.2414 c -0.0897,-0.0681 -0.14688,-0.13844 -0.127,-0.1564 0.0199,-0.018 0.31602,-0.21094 0.65808,-0.42884 0.49356,-0.31441 0.68401,-0.39085 0.92279,-0.37038 l 0.30087,0.0258 -0.70508,0.4953 c -0.84139,0.59104 -0.84262,0.59155 -1.04966,0.43453 z m -7.83784,-1.56483 c 0,-0.21449 0.0329,-0.254 0.21166,-0.254 0.17874,0 0.21167,0.0395 0.21167,0.254 0,0.21449 -0.0329,0.254 -0.21167,0.254 -0.17874,0 -0.21166,-0.0395 -0.21166,-0.254 z m 7.19666,0 c 0,-0.21449 0.0329,-0.254 0.21167,-0.254 0.26174,0 0.29459,0.28833 0.0479,0.42036 -0.23839,0.12758 -0.25957,0.11401 -0.25957,-0.16636 z M 233.934,251.1651 c 0,-0.21449 0.0329,-0.254 0.21166,-0.254 0.17874,0 0.21167,0.0395 0.21167,0.254 0,0.21449 -0.0329,0.254 -0.21167,0.254 -0.17874,0 -0.21166,-0.0395 -0.21166,-0.254 z m 7.19666,0 c 0,-0.21449 0.0329,-0.254 0.21167,-0.254 0.17874,0 0.21167,0.0395 0.21167,0.254 0,0.21449 -0.0329,0.254 -0.21167,0.254 -0.17874,0 -0.21167,-0.0395 -0.21167,-0.254 z m -5.7785,-3.53478 c 1.31551,-0.0131 3.46816,-0.0131 4.78367,0 1.31551,0.0131 0.23918,0.0238 -2.39183,0.0238 -2.63102,0 -3.70735,-0.0107 -2.39184,-0.0238 z"
         id="path93"
         inkscape:connector-curvature="0" />
    </g>
  </g>
</svg>
