<?xml version="1.0" encoding="UTF-8" standalone="no"?>
<!-- Created with Inkscape (http://www.inkscape.org/) -->

<svg
   xmlns:dc="http://purl.org/dc/elements/1.1/"
   xmlns:cc="http://creativecommons.org/ns#"
   xmlns:rdf="http://www.w3.org/1999/02/22-rdf-syntax-ns#"
   xmlns:svg="http://www.w3.org/2000/svg"
   xmlns="http://www.w3.org/2000/svg"
   xmlns:sodipodi="http://sodipodi.sourceforge.net/DTD/sodipodi-0.dtd"
   xmlns:inkscape="http://www.inkscape.org/namespaces/inkscape"
   width="67"
   height="67"
   viewBox="0 0 17.727083 17.727084"
   version="1.1"
   id="svg113"
   inkscape:version="0.92.1 r15371"
   sodipodi:docname="planos_out.svg">
  <defs
     id="defs107" />
  <sodipodi:namedview
     id="base"
     pagecolor="#ffffff"
     bordercolor="#666666"
     borderopacity="1.0"
     inkscape:pageopacity="0.0"
     inkscape:pageshadow="2"
     inkscape:zoom="0.35"
     inkscape:cx="209.95559"
     inkscape:cy="-349.98841"
     inkscape:document-units="mm"
     inkscape:current-layer="layer1"
     showgrid="false"
     units="px"
     fit-margin-top="0"
     fit-margin-left="0"
     fit-margin-right="0"
     fit-margin-bottom="0"
     inkscape:window-width="1600"
     inkscape:window-height="838"
     inkscape:window-x="-8"
     inkscape:window-y="-8"
     inkscape:window-maximized="1" />
  <metadata
     id="metadata110">
    <rdf:RDF>
      <cc:Work
         rdf:about="">
        <dc:format>image/svg+xml</dc:format>
        <dc:type
           rdf:resource="http://purl.org/dc/dcmitype/StillImage" />
        <dc:title></dc:title>
      </cc:Work>
    </rdf:RDF>
  </metadata>
  <g
     inkscape:label="Camada 1"
     inkscape:groupmode="layer"
     id="layer1"
     transform="translate(-50.282583,-38.505143)">
    <g
       id="g126"
       transform="matrix(2.136393,0,0,1.5615627,-15.1505,-283.01752)">
      <path
         style="fill:#d8dae3;stroke-width:0.08466667"
         d="m 31.154988,217.13005 c -0.254729,-0.0926 -0.520865,-0.34293 -0.527152,-0.49583 -0.0015,-0.036 0.311632,-0.39279 0.695807,-0.79282 l 0.6985,-0.72735 0.04315,-1.74717 0.04315,-1.74717 0.570678,-0.84259 0.570679,-0.84259 v -1.69974 c 0,-2.43904 -0.131953,-2.33008 2.821789,-2.33008 2.464221,0 2.605581,0.0322 2.755298,0.62674 0.132263,0.52526 0.131133,6.60775 -0.0013,7.13379 -0.149669,0.59439 -0.39791,0.70543 -1.577919,0.70582 -1.034154,3.4e-4 -1.107993,-0.034 -0.999694,-0.46554 0.04175,-0.16636 0.106923,-0.21148 0.305464,-0.21148 h 0.252387 v -3.59833 -3.59833 h -1.263952 c -1.550389,0 -1.530048,-0.0125 -1.530048,0.93738 0,0.3692 0.02858,0.67104 0.0635,0.67075 0.03493,-3e-4 0.128222,-0.11428 0.207327,-0.2533 0.0791,-0.13902 0.27913,-0.31729 0.4445,-0.39615 0.228201,-0.10882 0.300985,-0.19572 0.301969,-0.36053 0.0019,-0.32551 0.114751,-0.44573 0.388891,-0.41443 0.20733,0.0237 0.251294,0.0728 0.287146,0.32105 0.03643,0.25224 0.082,0.30118 0.326865,0.35105 0.411768,0.0839 0.547309,0.24614 0.440422,0.52727 -0.08507,0.22376 -0.09481,0.2263 -0.664156,0.17339 -0.478714,-0.0445 -0.602454,-0.0291 -0.721473,0.09 -0.307583,0.30759 -0.0582,0.65682 0.73014,1.02249 0.678818,0.31486 0.997907,0.86037 0.862877,1.47515 -0.07045,0.32076 -0.402342,0.72898 -0.73076,0.89881 l -0.243915,0.12613 v 1.65303 c 0,1.25162 -0.02878,1.70855 -0.11854,1.88166 -0.0652,0.12575 -0.538767,0.63821 -1.052379,1.1388 l -0.933839,0.91016 -1.085455,-0.0101 c -0.596999,-0.006 -1.208974,-0.055 -1.359942,-0.10989 z m 3.281801,-3.54184 c 0.0022,-0.1415 0.225611,-1.68478 0.264234,-1.82528 0.0231,-0.084 -0.46283,-0.34125 -0.668047,-0.35361 -0.06819,-0.004 -0.0058,1.98586 0.06648,2.12096 0.09752,0.18222 0.334767,0.22296 0.337334,0.0579 z m 3.681354,-3.4925 c 0,-2.69052 -0.02347,-3.46505 -0.105833,-3.4925 -0.08354,-0.0279 -0.105833,0.70791 -0.105833,3.4925 0,2.78459 0.02229,3.52035 0.105833,3.4925 0.08236,-0.0275 0.105833,-0.80198 0.105833,-3.4925 z m -2.442236,0.7088 c 0.06265,-0.052 0.113903,-0.22062 0.113903,-0.37473 0,-0.30534 -0.119304,-0.41377 -0.872121,-0.79261 -0.22355,-0.1125 -0.497315,-0.31252 -0.608367,-0.4445 -0.111052,-0.13198 -0.223423,-0.23996 -0.249713,-0.23996 -0.02629,0 -0.0478,0.43815 -0.0478,0.97367 0,0.93103 0.03486,1.07427 0.217097,0.89203 0.0524,-0.0524 0.217649,-0.0381 0.461433,0.0398 0.398379,0.12737 0.793318,0.10585 0.985568,-0.0537 z"
         id="path140"
         inkscape:connector-curvature="0" />
      <path
         style="fill:#c9ccd9;stroke-width:0.08466667"
         d="m 31.129916,217.05954 c -0.207775,-0.10477 -0.39038,-0.25867 -0.405789,-0.34199 -0.01803,-0.0975 0.219601,-0.40518 0.666549,-0.86308 l 0.694564,-0.71159 0.0417,-1.71925 0.0417,-1.71925 0.561748,-0.84667 0.561748,-0.84667 0.04233,-1.78648 c 0.04548,-1.91925 0.05473,-1.95846 0.518796,-2.19843 0.297043,-0.15361 4.038675,-0.17671 4.466476,-0.0276 0.514026,0.17919 0.518062,0.21103 0.518062,4.08743 0,2.03156 -0.03416,3.60222 -0.08103,3.72549 -0.143595,0.37768 -0.493509,0.48372 -1.50778,0.45691 -0.905618,-0.0239 -0.908858,-0.0248 -0.908858,-0.23485 0,-0.16804 0.05156,-0.21976 0.254,-0.25483 l 0.254,-0.044 v -3.63983 -3.63984 l -1.272109,-0.0233 c -1.003152,-0.0183 -1.307464,0.003 -1.439333,0.099 -0.16104,0.11772 -0.167921,0.2454 -0.186063,3.45227 -0.01989,3.51605 0.0029,3.75337 0.360006,3.75337 0.14748,0 0.182925,-0.10804 0.305565,-0.93134 0.0763,-0.51223 0.164428,-0.99364 0.195834,-1.06979 0.04443,-0.10773 -0.02379,-0.16411 -0.307337,-0.254 -0.389759,-0.12357 -0.480413,-0.28079 -0.302327,-0.52434 0.09179,-0.12553 0.151253,-0.13614 0.346626,-0.0619 0.387748,0.14742 1.024645,0.1124 1.185349,-0.0652 0.166911,-0.18444 0.181923,-0.51764 0.03253,-0.72195 -0.05918,-0.0809 -0.370151,-0.28926 -0.691051,-0.46295 -0.693655,-0.37544 -0.933171,-0.66034 -0.933171,-1.11001 0,-0.44805 0.179646,-0.74395 0.601898,-0.9914 0.285833,-0.16751 0.363225,-0.26419 0.384105,-0.47982 0.02149,-0.22192 0.06661,-0.27471 0.25324,-0.29628 0.20159,-0.0233 0.230112,0.005 0.254,0.254 0.02339,0.24354 0.07126,0.2947 0.365576,0.39064 0.426678,0.13909 0.496404,0.20971 0.426019,0.43147 -0.05242,0.16517 -0.09771,0.17408 -0.632286,0.1244 -0.514993,-0.0479 -0.594881,-0.0345 -0.756276,0.12694 -0.350474,0.35047 -0.184043,0.62857 0.638881,1.06752 0.649541,0.34647 0.89077,0.63509 0.935922,1.11981 0.04425,0.47508 -0.191994,0.90729 -0.614166,1.12362 -0.138652,0.071 -0.280086,0.16727 -0.314298,0.21384 -0.03421,0.0466 -0.06279,0.82866 -0.0635,1.73799 -0.0011,1.38914 -0.02348,1.68678 -0.140117,1.86267 -0.07635,0.11514 -0.542426,0.61892 -1.035722,1.11951 l -0.896903,0.91016 H 32.52836 c -0.890096,0 -1.068999,-0.0244 -1.398444,-0.1905 z m 7.013627,-3.4671 c 0.07565,-0.0757 0.1016,-0.97042 0.1016,-3.5033 0,-2.87496 -0.01909,-3.41754 -0.123291,-3.50402 -0.06781,-0.0563 -0.16306,-0.0777 -0.211667,-0.0477 -0.09857,0.0609 -0.129782,7.00233 -0.03193,7.10018 0.08162,0.0816 0.150189,0.0699 0.265289,-0.0452 z"
         id="path138"
         inkscape:connector-curvature="0" />
      <path
         style="fill:#bdc0d0;stroke-width:0.08466667"
         d="m 31.260143,217.09227 c -0.591572,-0.2691 -0.619516,-0.3716 -0.2278,-0.83557 0.187437,-0.22201 0.515396,-0.57351 0.728797,-0.78112 l 0.388003,-0.37746 1.32e-4,-1.6122 c 1.47e-4,-1.80117 -0.05085,-1.60483 0.740701,-2.85207 l 0.4445,-0.70039 v -1.63758 c 0,-2.47106 -0.0934,-2.39117 2.795486,-2.39117 1.568202,0 2.002588,0.025 2.198913,0.12652 0.522575,0.27023 0.508935,0.16083 0.508935,4.08198 v 3.57816 l -0.246863,0.2765 -0.246863,0.27651 -0.969061,0.0282 c -0.851932,0.0248 -0.975772,0.0107 -1.024597,-0.11656 -0.07326,-0.19092 0.08959,-0.37727 0.329693,-0.37727 0.105732,0 0.215367,-0.0603 0.243633,-0.13392 0.06711,-0.1749 0.06711,-6.92326 0,-7.09816 -0.04385,-0.11427 -0.246929,-0.13392 -1.383878,-0.13392 -1.183365,0 -1.348168,0.0173 -1.472609,0.15483 -0.125481,0.13866 -0.140122,0.50958 -0.140122,3.54996 0,2.97358 0.01652,3.41163 0.133048,3.52816 0.152421,0.15242 0.340216,0.17308 0.418717,0.0461 0.04766,-0.0771 0.29287,-1.56752 0.324904,-1.97479 0.0086,-0.10912 -0.07773,-0.18632 -0.284002,-0.254 -0.233716,-0.0767 -0.296334,-0.14196 -0.296334,-0.3089 0,-0.23095 0.107581,-0.24914 0.739435,-0.12504 0.419429,0.0824 0.783978,-0.0749 0.916808,-0.39561 0.09071,-0.219 0.0825,-0.28202 -0.06244,-0.47957 -0.09178,-0.12509 -0.392549,-0.34876 -0.668375,-0.49703 -0.275825,-0.14827 -0.60641,-0.38699 -0.734632,-0.5305 -0.458404,-0.51304 -0.233586,-1.33216 0.442488,-1.6122 0.192105,-0.0796 0.256037,-0.16129 0.257011,-0.32849 0.0031,-0.5241 0.432908,-0.60709 0.506704,-0.0978 0.03634,0.25078 0.0824,0.30031 0.325344,0.34979 0.345245,0.0703 0.462573,0.17748 0.420787,0.38432 -0.02202,0.10899 -0.09582,0.15141 -0.240774,0.13839 -0.790817,-0.071 -0.917543,-0.0599 -1.089453,0.0957 -0.216368,0.19581 -0.231254,0.56961 -0.02974,0.74677 0.08149,0.0716 0.319617,0.21525 0.529167,0.31913 0.971748,0.48171 1.247437,0.94612 0.978968,1.6491 -0.112248,0.29391 -0.234861,0.43606 -0.520567,0.60349 l -0.373734,0.21903 v 1.64852 c 0,1.03902 -0.0347,1.71689 -0.09386,1.83345 -0.05162,0.10172 -0.536804,0.63261 -1.078177,1.17977 l -0.984315,0.99483 -0.932656,-0.002 c -0.718316,-0.001 -1.010489,-0.0373 -1.271324,-0.15591 z m 6.8834,-3.41516 c 0.07574,-0.0757 0.1016,-0.99088 0.1016,-3.59535 0,-3.32516 -0.0076,-3.49784 -0.158201,-3.57843 -0.08701,-0.0466 -0.18226,-0.0606 -0.211666,-0.0312 -0.0718,0.0718 -0.06888,7.17828 0.003,7.25014 0.08162,0.0816 0.150189,0.0699 0.265289,-0.0452 z"
         id="path136"
         inkscape:connector-curvature="0" />
      <path
         style="fill:#b1b5c8;stroke-width:0.08466667"
         d="m 31.244107,217.07433 c -0.647935,-0.32072 -0.644792,-0.34471 0.149774,-1.14311 l 0.712929,-0.71637 0.04233,-1.71522 0.04233,-1.71523 0.550334,-0.84434 0.550333,-0.84435 0.04233,-1.75085 c 0.06107,-2.5259 -0.03814,-2.43711 2.724989,-2.4389 1.065752,-6.9e-4 2.018767,0.0361 2.141077,0.0825 0.121232,0.0461 0.314212,0.18501 0.428845,0.3087 l 0.208423,0.22489 v 3.55174 c 0,3.44099 -0.0054,3.5593 -0.172982,3.79466 -0.100237,0.14077 -0.304969,0.27959 -0.486834,0.3301 -0.341836,0.0949 -1.446271,0.11935 -1.661593,0.0367 -0.234582,-0.09 -0.153041,-0.3313 0.141242,-0.41793 l 0.275167,-0.081 v -3.64067 -3.64067 l -1.385741,-0.0233 c -0.950048,-0.016 -1.422555,0.007 -1.502833,0.0739 -0.09621,0.0799 -0.117093,0.71894 -0.117093,3.58354 0,3.68983 -2.8e-5,3.68957 0.39632,3.68957 0.219883,0 0.233638,-0.0407 0.37048,-1.09711 0.05102,-0.39387 0.131492,-0.78848 0.178826,-0.87693 0.103856,-0.19406 0.04069,-0.26041 -0.374126,-0.39296 -0.319863,-0.10222 -0.377197,-0.20164 -0.240629,-0.41729 0.05962,-0.0941 0.128694,-0.0983 0.350005,-0.0212 0.471305,0.1643 0.910187,0.12142 1.143306,-0.1117 0.427801,-0.4278 0.217628,-0.84254 -0.647841,-1.27838 -0.610763,-0.30757 -0.921404,-0.6564 -0.922024,-1.03536 -6.44e-4,-0.39043 0.227804,-0.75349 0.604458,-0.96067 0.298639,-0.16426 0.373842,-0.25373 0.394885,-0.4698 0.0449,-0.46104 0.386204,-0.41994 0.452728,0.0545 0.02291,0.16342 0.09972,0.22541 0.353251,0.28511 0.349391,0.0823 0.471105,0.24452 0.320005,0.42658 -0.07372,0.0888 -0.167274,0.0946 -0.423336,0.0263 -0.454154,-0.12122 -0.864876,0.006 -1.013085,0.31478 -0.102289,0.21284 -0.09688,0.26436 0.04854,0.46263 0.09,0.12271 0.38932,0.34443 0.665146,0.4927 0.275826,0.14827 0.60641,0.387 0.734632,0.5305 0.468063,0.52386 0.241439,1.41358 -0.431003,1.69212 -0.220898,0.0915 -0.249371,0.15035 -0.298048,0.61606 -0.0296,0.2832 -0.05382,1.1033 -0.05382,1.82245 v 1.30755 l -1.030189,1.0507 -1.030189,1.0507 -0.938311,-6e-5 c -0.778868,-6e-5 -0.998584,-0.0299 -1.293014,-0.17565 z m 6.953902,-3.48379 c 0.113828,-0.16251 0.131801,-0.63908 0.131801,-3.49483 0,-2.85575 -0.01797,-3.33232 -0.131801,-3.49483 -0.07249,-0.10349 -0.18679,-0.18817 -0.254,-0.18817 -0.104615,0 -0.122199,0.52998 -0.122199,3.683 0,3.15302 0.01758,3.683 0.122199,3.683 0.06721,0 0.18151,-0.0847 0.254,-0.18817 z"
         id="path134"
         inkscape:connector-curvature="0" />
      <path
         style="fill:#9da1b9;stroke-width:0.08466667"
         d="m 31.514143,217.1781 c -0.386626,-0.12571 -0.969241,-0.60539 -0.735309,-0.60539 0.03796,0 0.380864,-0.34429 0.762,-0.76509 l 0.692976,-0.76509 v -1.63806 -1.63807 l 0.366957,-0.53901 c 0.860583,-1.26408 0.818376,-1.11225 0.818376,-2.94385 0,-2.43817 -0.168144,-2.29416 2.678615,-2.29416 h 2.177695 l 0.281179,0.30697 0.281178,0.30698 v 3.49699 3.497 l -0.287946,0.30531 -0.287945,0.30531 -0.918555,-0.0241 c -0.74933,-0.0197 -0.918554,-0.0475 -0.918554,-0.15112 0,-0.0718 0.09203,-0.13881 0.211667,-0.15416 0.422599,-0.0542 0.423333,-0.0607 0.423333,-3.76225 0,-2.22365 -0.03133,-3.51926 -0.08765,-3.62449 -0.08103,-0.15141 -0.189611,-0.16377 -1.439333,-0.16377 -1.238799,0 -1.36583,0.0142 -1.521021,0.16934 -0.163608,0.1636 -0.169334,0.28222 -0.169334,3.50815 0,1.93936 0.03423,3.42886 0.08167,3.55364 0.08513,0.22391 0.465348,0.38396 0.597322,0.25144 0.04066,-0.0408 0.119008,-0.43618 0.174104,-0.87857 0.0551,-0.44238 0.150341,-0.92791 0.211657,-1.07895 0.123352,-0.30386 0.07356,-0.36202 -0.408588,-0.47728 -0.156911,-0.0375 -0.232833,-0.11035 -0.232833,-0.22338 0,-0.19407 0.04834,-0.20062 0.549185,-0.0745 0.435657,0.1097 0.925485,-0.0122 1.060132,-0.26376 0.136948,-0.25589 0.09691,-0.66322 -0.08286,-0.84299 -0.09178,-0.0918 -0.392709,-0.28087 -0.668731,-0.42021 -0.633853,-0.31997 -0.85773,-0.59572 -0.85773,-1.0565 0,-0.42978 0.163933,-0.67769 0.592818,-0.89649 0.265124,-0.13526 0.332706,-0.21971 0.354239,-0.44268 0.03793,-0.39278 0.301691,-0.43112 0.338365,-0.0492 0.02375,0.24736 0.06916,0.29364 0.386745,0.39413 0.254228,0.0805 0.359833,0.16028 0.359833,0.27199 0,0.14349 -0.05109,0.15334 -0.552769,0.10649 -0.500136,-0.0467 -0.572691,-0.0329 -0.762,0.14494 -0.256031,0.24053 -0.271835,0.59215 -0.0362,0.8054 0.09517,0.0861 0.428542,0.29393 0.740834,0.46179 0.664362,0.3571 0.896713,0.69545 0.833411,1.2136 -0.04483,0.36692 -0.209239,0.58194 -0.667775,0.8733 l -0.3175,0.20175 v 1.74332 1.74332 l -1.037167,1.08299 -1.037167,1.083 -0.889,5e-4 c -0.48895,2.6e-4 -0.9652,-0.0242 -1.058333,-0.0545 z m 6.660834,-3.45485 c 0.145237,-0.13143 0.154833,-0.35677 0.154833,-3.63586 v -3.49574 l -0.18473,-0.12939 c -0.400637,-0.28062 -0.407937,-0.21492 -0.407937,3.67204 0,1.9889 0.0254,3.64159 0.05644,3.67263 0.09239,0.0924 0.217058,0.065 0.381389,-0.0837 z"
         id="path132"
         inkscape:connector-curvature="0" />
      <path
         style="fill:#9599b4;stroke-width:0.08466667"
         d="m 31.556476,217.16675 c -0.162983,-0.0351 -0.258233,-0.0689 -0.211666,-0.0752 0.04657,-0.006 -0.03916,-0.087 -0.1905,-0.17923 -0.151342,-0.0923 -0.275167,-0.20733 -0.275167,-0.25567 0,-0.0483 0.301219,-0.40166 0.669376,-0.78514 l 0.669377,-0.69724 0.02912,-1.69261 0.02912,-1.69261 0.592667,-0.889 0.592666,-0.889 0.04233,-1.79862 0.04233,-1.79862 0.229138,-0.21221 0.229138,-0.21221 h 2.176807 c 1.197243,0 2.152698,0.0241 2.123233,0.0536 -0.02947,0.0295 0.04039,0.12748 0.155222,0.21781 0.114838,0.0903 0.208796,0.22087 0.208796,0.29009 0,0.0692 0.0381,0.10231 0.08467,0.0735 0.05593,-0.0346 0.08467,1.14378 0.08467,3.47133 0,2.32755 -0.02874,3.5059 -0.08467,3.47133 -0.04657,-0.0288 -0.08467,4.4e-4 -0.08467,0.0649 0,0.0645 -0.08818,0.20007 -0.195957,0.30133 -0.175954,0.1653 -0.288307,0.18409 -1.100667,0.18409 -0.920525,0 -1.124254,-0.0697 -0.629543,-0.21533 l 0.275167,-0.081 v -3.72533 -3.72533 l -1.452488,-0.0231 c -1.23733,-0.0197 -1.472487,-0.003 -1.5875,0.11188 -0.119207,0.1192 -0.135013,0.54374 -0.135013,3.62645 0,2.6649 0.02506,3.5233 0.105834,3.62607 0.137811,0.17531 0.413057,0.25227 0.563812,0.15763 0.09908,-0.0622 0.308538,-1.09796 0.453083,-2.24047 0.01532,-0.12112 -0.06239,-0.18377 -0.318395,-0.25671 -0.348441,-0.0993 -0.494233,-0.37154 -0.169333,-0.31623 0.864338,0.14712 1.126896,0.11459 1.394656,-0.17282 0.383149,-0.41126 0.123178,-0.93413 -0.662425,-1.33231 -0.683198,-0.34628 -0.901565,-0.60725 -0.901565,-1.07746 0,-0.32349 0.04182,-0.41849 0.276503,-0.62818 0.152076,-0.13588 0.33171,-0.24706 0.399187,-0.24706 0.147192,0 0.297977,-0.25781 0.297977,-0.50949 0,-0.26273 0.203013,-0.16049 0.254,0.12792 0.03409,0.19283 0.106972,0.25758 0.374214,0.33249 0.182534,0.0512 0.348113,0.14173 0.367952,0.20125 0.02807,0.0842 -0.08672,0.0956 -0.517683,0.0515 -0.537575,-0.0551 -0.561312,-0.0492 -0.812452,0.20196 -0.458686,0.45869 -0.305763,0.78162 0.594036,1.25445 0.71555,0.37601 0.925266,0.61738 0.925266,1.0649 0,0.47006 -0.195918,0.79317 -0.585033,0.96484 -0.189671,0.0837 -0.354112,0.22356 -0.381131,0.3242 -0.02614,0.0974 -0.04804,0.91642 -0.04868,1.82016 l -0.0012,1.64315 -0.994833,1.00724 c -0.547159,0.55398 -0.975784,1.03376 -0.9525,1.06618 0.05843,0.0813 -1.58234,0.0965 -1.947334,0.018 z m 6.7262,-3.49155 c 0.113947,-0.16268 0.131632,-0.6415 0.130553,-3.53483 -0.0013,-3.61245 -0.01909,-3.76999 -0.424586,-3.76999 h -0.209166 l -0.02205,3.7465 -0.02205,3.7465 h 0.207746 c 0.1187,0 0.264241,-0.0807 0.339548,-0.18818 z"
         id="path130"
         inkscape:connector-curvature="0" />
      <path
         style="fill:#8b90ad;stroke-width:0.08466667"
         d="m 31.46266,217.1053 c 0.07737,-0.0307 0.02602,-0.0853 -0.149465,-0.15911 -0.465164,-0.19559 -0.427688,-0.32403 0.317208,-1.08718 l 0.688073,-0.70494 v -1.64953 c 0,-1.57566 0.0086,-1.66239 0.192687,-1.93651 0.105977,-0.15784 0.363152,-0.55369 0.5715,-0.87965 l 0.378813,-0.59267 0.04233,-1.79052 c 0.03799,-1.60685 0.05888,-1.80878 0.203622,-1.9685 0.08871,-0.0979 0.241109,-0.18066 0.338667,-0.18393 0.174077,-0.006 0.174226,-0.007 0.008,-0.0787 -0.100525,-0.0432 0.725172,-0.0746 2.032,-0.0774 1.450432,-0.003 2.158012,0.0233 2.074334,0.0774 -0.109667,0.0709 -0.107617,0.0823 0.01502,0.0834 0.07811,7.2e-4 0.220987,0.10169 0.3175,0.22438 0.171246,0.21771 0.175414,0.30807 0.172786,3.7465 -0.0028,3.71151 2.88e-4,3.68064 -0.393908,3.89059 -0.231034,0.12305 -1.837693,0.13566 -1.762399,0.0138 0.02878,-0.0466 0.143987,-0.0847 0.256017,-0.0847 0.114731,0 0.24197,-0.0715 0.291337,-0.16376 0.120083,-0.22438 0.120083,-7.15276 0,-7.37714 -0.08134,-0.15199 -0.190501,-0.16376 -1.517855,-0.16376 h -1.430209 l -0.175479,0.22308 c -0.170872,0.21723 -0.175478,0.31182 -0.175478,3.6039 0,3.35791 0.02089,3.63464 0.287841,3.81289 0.125024,0.0835 0.538376,0.0817 0.590438,-0.003 0.02288,-0.037 0.102355,-0.50287 0.176603,-1.0352 0.07425,-0.53234 0.172074,-1.00497 0.217391,-1.05028 0.193194,-0.1932 0.08079,-0.3675 -0.298606,-0.46303 -0.20955,-0.0528 -0.381001,-0.13762 -0.381001,-0.18856 0,-0.0618 0.0776,-0.0691 0.232834,-0.0219 0.128058,0.0389 0.41321,0.0714 0.633671,0.0721 0.515543,0.002 0.860696,-0.30102 0.860696,-0.75487 0,-0.37557 -0.266729,-0.67273 -0.856265,-0.95395 -0.62517,-0.29822 -0.870936,-0.56794 -0.870936,-0.9558 0,-0.3838 0.243671,-0.71991 0.642823,-0.88669 0.251441,-0.10505 0.288511,-0.15917 0.288511,-0.4212 0,-0.16536 0.0381,-0.30065 0.08467,-0.30065 0.04657,0 0.08467,0.11205 0.08467,0.249 0,0.27551 0.07511,0.34578 0.451946,0.42285 0.140283,0.0287 0.271163,0.10048 0.290844,0.15952 0.02659,0.0798 -0.02614,0.0901 -0.205337,0.0402 -0.700992,-0.19535 -1.299453,0.0881 -1.299453,0.61552 0,0.36789 0.188541,0.56845 0.889,0.94569 0.465532,0.25072 0.62739,0.39029 0.754536,0.65065 0.14705,0.3011 0.150926,0.36311 0.04233,0.6772 -0.09534,0.27575 -0.2009,0.38859 -0.521458,0.55741 l -0.401922,0.21167 -2.45e-4,1.76664 -2.45e-4,1.76664 -0.9525,0.98503 c -0.523875,0.54176 -0.985386,1.00898 -1.02558,1.03827 -0.04019,0.0293 -0.02114,0.0739 0.04233,0.0992 0.06348,0.0252 -0.398936,0.0459 -1.027586,0.0459 -0.62865,0 -1.089968,-0.021 -1.02515,-0.0467 z m 6.782483,-3.32659 c 0.163893,-0.16389 0.169334,-0.28222 0.169334,-3.683 0,-3.40078 -0.0054,-3.51911 -0.169334,-3.683 -0.09313,-0.0931 -0.218863,-0.16933 -0.2794,-0.16933 -0.302476,0 -0.313266,0.13424 -0.313266,3.89749 0,2.03185 0.0254,3.71968 0.05644,3.75073 0.109239,0.10924 0.368723,0.0546 0.536222,-0.11289 z m 0.546705,-3.64067 c 0,-1.93251 0.01111,-2.72309 0.0247,-1.75683 0.01358,0.96626 0.01358,2.54741 0,3.51367 -0.01358,0.96626 -0.0247,0.17568 -0.0247,-1.75684 z"
         id="path128"
         inkscape:connector-curvature="0" />
    </g>
  </g>
</svg>
