<?xml version="1.0" encoding="UTF-8" standalone="no"?>
<!-- Created with Inkscape (http://www.inkscape.org/) -->

<svg
   xmlns:dc="http://purl.org/dc/elements/1.1/"
   xmlns:cc="http://creativecommons.org/ns#"
   xmlns:rdf="http://www.w3.org/1999/02/22-rdf-syntax-ns#"
   xmlns:svg="http://www.w3.org/2000/svg"
   xmlns="http://www.w3.org/2000/svg"
   xmlns:sodipodi="http://sodipodi.sourceforge.net/DTD/sodipodi-0.dtd"
   xmlns:inkscape="http://www.inkscape.org/namespaces/inkscape"
   width="67"
   height="67"
   viewBox="0 0 17.727083 17.727084"
   version="1.1"
   id="svg148"
   inkscape:version="0.92.1 r15371"
   sodipodi:docname="simula_out.svg">
  <defs
     id="defs142" />
  <sodipodi:namedview
     id="base"
     pagecolor="#ffffff"
     bordercolor="#666666"
     borderopacity="1.0"
     inkscape:pageopacity="0.0"
     inkscape:pageshadow="2"
     inkscape:zoom="0.35"
     inkscape:cx="767.36832"
     inkscape:cy="802.07104"
     inkscape:document-units="mm"
     inkscape:current-layer="layer1"
     showgrid="false"
     units="px"
     fit-margin-top="0"
     fit-margin-left="0"
     fit-margin-right="0"
     fit-margin-bottom="0"
     inkscape:window-width="1600"
     inkscape:window-height="838"
     inkscape:window-x="-8"
     inkscape:window-y="-8"
     inkscape:window-maximized="1" />
  <metadata
     id="metadata145">
    <rdf:RDF>
      <cc:Work
         rdf:about="">
        <dc:format>image/svg+xml</dc:format>
        <dc:type
           rdf:resource="http://purl.org/dc/dcmitype/StillImage" />
        <dc:title></dc:title>
      </cc:Work>
    </rdf:RDF>
  </metadata>
  <g
     inkscape:label="Camada 1"
     inkscape:groupmode="layer"
     id="layer1"
     transform="translate(97.199536,-343.32087)">
    <g
       id="g161"
       transform="matrix(1.4720188,0,0,1.6143631,-430.38817,-54.422811)">
      <path
         style="fill:#d8dae3;stroke-width:0.08466667"
         d="m 228.15902,255.26953 c -0.86441,-1.48038 -1.22004,-2.16281 -1.15893,-2.22392 0.0611,-0.0611 0.47043,0.10634 1.33389,0.54571 l 1.24573,0.63388 0.0423,0.46566 0.0423,0.46567 0.54638,0.26883 c 1.01871,0.50122 2.31161,0.57974 3.3183,0.20153 0.39488,-0.14836 1.13232,-0.58441 1.64949,-0.97537 0.18558,-0.14028 0.24219,0.0284 0.27294,0.81328 0.0355,0.90649 0.01,0.94784 -0.82833,1.33418 -1.64043,0.75612 -2.94973,0.67222 -4.84833,-0.31067 -0.0324,-0.0168 -0.0705,0.17167 -0.0847,0.41874 -0.0468,0.81627 -0.18395,0.66965 -1.53114,-1.63752 z m 7.60951,0.0272 c -0.0243,-0.0393 -0.0695,-0.67748 -0.10045,-1.41817 l -0.0563,-1.3467 0.39759,-0.27751 0.39758,-0.27751 -0.0566,-0.48449 c -0.22418,-1.91918 -1.08923,-3.12657 -2.71147,-3.7845 -0.27676,-0.11225 -0.51439,-0.2575 -0.52806,-0.32278 -0.0145,-0.0692 0.25742,-0.304 0.65168,-0.56284 l 0.67653,-0.44415 0.44899,0.23883 c 0.24695,0.13136 0.73908,0.52536 1.09364,0.87556 0.93636,0.92485 1.37088,1.87882 1.4583,3.20159 0.0194,0.29307 0.056,0.5536 0.0813,0.57896 0.0254,0.0254 0.22039,-0.056 0.4334,-0.18087 0.31747,-0.18605 0.39591,-0.20452 0.43508,-0.10244 0.0582,0.15167 -2.3322,4.37849 -2.47618,4.37849 -0.0555,0 -0.12079,-0.0322 -0.14508,-0.0715 z m -5.61355,-1.05318 c -0.38216,-0.28202 -0.67894,-0.66787 -0.9364,-1.21744 -0.19851,-0.42375 -0.23154,-0.60293 -0.23154,-1.25625 0,-0.66061 0.0324,-0.83209 0.24335,-1.28882 0.29856,-0.64637 0.96001,-1.29733 1.64026,-1.61426 0.41474,-0.19323 0.60019,-0.22692 1.24906,-0.22692 0.64775,0 0.83458,0.0338 1.24613,0.22558 0.67491,0.31448 1.28117,0.90919 1.61211,1.58142 0.24849,0.50477 0.2743,0.62961 0.27309,1.32122 -10e-4,0.64796 -0.0355,0.8372 -0.22691,1.24791 -0.25457,0.54634 -0.94654,1.33621 -1.1706,1.33621 -0.0814,0 -0.21252,-0.0985 -0.29135,-0.21876 -0.20968,-0.32002 -0.76008,-0.53928 -1.35781,-0.54091 -0.70442,-0.002 -1.08746,0.12372 -1.37478,0.45097 -0.34875,0.3972 -0.39063,0.40962 -0.67461,0.20005 z m 2.64853,-1.77524 c 0.54129,-0.49605 0.46561,-1.29485 -0.15875,-1.67554 -0.67666,-0.41259 -1.58339,0.0832 -1.58339,0.86572 0,0.67249 0.40245,1.07528 1.08075,1.08165 0.29198,0.003 0.41854,-0.0493 0.66139,-0.27183 z m -5.66233,0.1778 c -0.41692,-0.20978 -0.6919,-0.40594 -0.75106,-0.53579 -0.12266,-0.26919 0.0396,-1.57168 0.27376,-2.19752 0.35856,-0.95833 1.26657,-2.03857 2.11382,-2.51475 0.18499,-0.10397 0.33634,-0.21934 0.33634,-0.25639 0,-0.037 -0.14981,-0.14379 -0.33292,-0.2372 -0.39286,-0.20042 -0.49463,-0.33275 -0.33409,-0.43443 0.0642,-0.0406 1.21205,-0.0745 2.55084,-0.0752 2.26729,-0.001 2.43417,0.009 2.43417,0.14767 0,0.0819 -0.0667,0.19157 -0.14817,0.24364 -0.0815,0.0521 -0.5993,0.38409 -1.1507,0.73783 l -1.00253,0.64315 -0.32759,-0.16713 c -0.46347,-0.23644 -0.59048,-0.21417 -1.15705,0.20292 -1.29096,0.95034 -1.95907,2.51139 -1.72381,4.02767 0.11134,0.71762 0.11274,0.65589 -0.0161,0.70532 -0.059,0.0226 -0.40321,-0.10778 -0.76496,-0.28979 z"
         id="path175"
         inkscape:connector-curvature="0" />
      <path
         style="fill:#c8cad8;stroke-width:0.08466667"
         d="m 229.39003,257.20876 c -0.19725,-0.25276 -2.30799,-3.934 -2.30799,-4.02525 0,-0.0557 0.0196,-0.10131 0.0435,-0.10131 0.0517,0 2.26657,1.10282 2.32527,1.1578 0.0223,0.0209 0.0604,0.23428 0.0847,0.47427 0.038,0.37548 0.0829,0.46234 0.32134,0.6227 0.77224,0.51925 2.25776,0.75472 3.21406,0.50945 0.64987,-0.16668 1.30302,-0.48839 1.78394,-0.8787 0.20046,-0.16269 0.39096,-0.26939 0.42333,-0.23711 0.0893,0.0891 0.15323,1.39461 0.0751,1.53402 -0.0835,0.14897 -0.86554,0.54718 -1.49792,0.7627 -0.33889,0.1155 -0.70769,0.15872 -1.35466,0.15876 -0.95856,6e-5 -1.60926,-0.16308 -2.35815,-0.59123 -0.20266,-0.11587 -0.40268,-0.21066 -0.4445,-0.21066 -0.0418,0 -0.076,0.18825 -0.076,0.41833 0,0.4322 -0.0895,0.58888 -0.23201,0.40623 z m 6.46385,-1.9956 c -0.0294,-0.0476 -0.0774,-0.67042 -0.1066,-1.38396 l -0.053,-1.29734 0.35057,-0.19591 0.35057,-0.19592 -0.001,-0.56608 c -0.003,-1.64602 -0.93195,-3.07322 -2.49204,-3.82835 -0.83605,-0.40467 -0.83598,-0.38709 -0.004,-0.9292 l 0.54183,-0.35301 0.4484,0.23879 c 0.24662,0.13133 0.71932,0.50614 1.05044,0.8329 0.90589,0.89396 1.32463,1.83156 1.43711,3.21788 l 0.0582,0.71739 0.40714,-0.22886 c 0.22393,-0.12588 0.43035,-0.20567 0.45871,-0.17731 0.0507,0.0507 -2.08667,3.89879 -2.28925,4.12164 -0.0666,0.0732 -0.12272,0.083 -0.15713,0.0273 z m -5.87138,-1.22977 c -0.22845,-0.21369 -0.52679,-0.60865 -0.66299,-0.87769 -0.22209,-0.43875 -0.24763,-0.57226 -0.24771,-1.29528 -9e-5,-0.73846 0.023,-0.85303 0.27507,-1.36505 0.32621,-0.66264 0.85761,-1.18289 1.53034,-1.49826 0.40874,-0.19161 0.5943,-0.22525 1.2425,-0.22525 0.6482,0 0.83376,0.0336 1.24249,0.22525 0.67273,0.31537 1.20413,0.83562 1.53035,1.49826 0.24879,0.50538 0.27516,0.63211 0.27516,1.32271 0,0.65013 -0.0335,0.83528 -0.22525,1.24428 -0.23628,0.50402 -0.86289,1.25517 -1.04707,1.25517 -0.0593,0 -0.23717,-0.12942 -0.39536,-0.28761 -0.67388,-0.67388 -2.10815,-0.64247 -2.78408,0.061 l -0.31808,0.33103 z m 2.73203,-1.32586 c 0.28863,-0.17838 0.54818,-0.61604 0.54818,-0.92435 0,-0.29511 -0.21753,-0.72667 -0.464,-0.92054 -0.73239,-0.5761 -1.822,-0.0315 -1.822,0.91072 0,0.85905 0.99444,1.39361 1.73782,0.93417 z m -5.65215,-0.13024 c -0.66013,-0.33884 -0.70717,-0.43711 -0.61614,-1.28709 0.1738,-1.623 1.08365,-3.05758 2.41257,-3.80398 0.23342,-0.13109 0.42443,-0.26164 0.42448,-0.29009 4e-5,-0.0285 -0.17139,-0.1427 -0.38096,-0.25388 -0.20957,-0.11118 -0.36834,-0.2403 -0.35281,-0.28693 0.0379,-0.11371 4.79785,-0.16117 4.79785,-0.0478 0,0.0924 -0.39762,0.37596 -1.48036,1.05577 l -0.7424,0.46612 -0.32458,-0.16559 c -0.17852,-0.0911 -0.38943,-0.16558 -0.4687,-0.16558 -0.43401,0 -1.63978,1.10914 -2.01871,1.85692 -0.43836,0.86505 -0.61277,2.0203 -0.43868,2.90558 0.0806,0.41006 -0.0402,0.41253 -0.81156,0.0166 z"
         id="path173"
         inkscape:connector-curvature="0" />
      <path
         style="fill:#bec0d0;stroke-width:0.08466667"
         d="m 229.39736,257.13911 c -0.26853,-0.32964 -2.30983,-3.93174 -2.2411,-3.95465 0.0438,-0.0146 0.57768,0.22301 1.18638,0.52803 1.16706,0.58481 1.16402,0.58173 1.21421,1.23227 0.0209,0.27104 0.067,0.31821 0.54262,0.55479 1.58797,0.78994 3.44581,0.57274 4.87635,-0.57011 0.1273,-0.1017 0.2552,-0.16116 0.28422,-0.13213 0.029,0.029 0.0727,0.3716 0.097,0.76127 l 0.0442,0.7085 -0.58242,0.30496 c -1.53248,0.80243 -3.0631,0.8157 -4.55733,0.0395 -0.28184,-0.1464 -0.55053,-0.26697 -0.5971,-0.26793 -0.0466,-9.7e-4 -0.10371,0.20461 -0.127,0.45682 -0.0335,0.363 -0.0627,0.43359 -0.14001,0.33867 z m 6.46414,-2.00237 c -0.0207,-0.0357 -0.0644,-0.62234 -0.0971,-1.30369 l -0.0595,-1.23881 0.36642,-0.24542 c 0.42965,-0.28778 0.47559,-0.4851 0.32324,-1.38834 -0.1277,-0.75711 -0.56959,-1.66514 -1.07543,-2.2099 -0.46465,-0.50039 -1.25906,-1.0443 -1.73238,-1.18611 -0.1782,-0.0534 -0.324,-0.14372 -0.324,-0.20073 0,-0.12925 1.01815,-0.80088 1.21408,-0.80088 0.40835,0 1.54492,0.93858 2.03158,1.67767 0.54786,0.83205 0.74698,1.43287 0.79787,2.4075 0.0237,0.45403 0.0781,0.8255 0.12085,0.8255 0.0428,0 0.22561,-0.0851 0.40634,-0.18912 0.18073,-0.10401 0.35236,-0.16535 0.38141,-0.1363 0.0552,0.0552 -2.10866,3.92552 -2.24026,4.00685 -0.0415,0.0257 -0.0924,0.0175 -0.11308,-0.0182 z m -5.80094,-1.08109 c -0.3946,-0.33204 -0.76408,-0.97779 -0.91926,-1.60664 -0.34565,-1.40064 0.36185,-2.81311 1.72968,-3.45319 0.48839,-0.22855 0.66213,-0.26549 1.24873,-0.26549 0.58282,0 0.76072,0.0373 1.2297,0.25777 1.59629,0.75047 2.27961,2.60711 1.51328,4.11172 -0.2463,0.48357 -0.54639,0.8696 -0.81056,1.04269 -0.21067,0.13804 -0.22219,0.13492 -0.45909,-0.12446 -0.34315,-0.37571 -0.73234,-0.51282 -1.44945,-0.51066 -0.70168,0.002 -1.20407,0.18443 -1.48206,0.53784 -0.2165,0.27524 -0.28484,0.27643 -0.60097,0.0104 z m 2.67702,-1.36937 c 0.47071,-0.29346 0.66338,-1.03848 0.40018,-1.54745 -0.16769,-0.32428 -0.62924,-0.59663 -1.01108,-0.59663 -0.67831,0 -1.14909,0.49285 -1.14966,1.20355 -6.9e-4,0.87964 1.00039,1.41444 1.76056,0.94053 z m -5.61321,-0.17826 -0.59266,-0.31482 -0.0248,-0.60886 c -0.0636,-1.56166 0.83535,-3.1701 2.26472,-4.05236 0.28145,-0.17372 0.51172,-0.3461 0.51172,-0.38307 0,-0.037 -0.1524,-0.15287 -0.33866,-0.25755 -0.18627,-0.10469 -0.33867,-0.21717 -0.33867,-0.24995 0,-0.0655 3.73664,-0.19691 4.26912,-0.15009 0.18267,0.0161 0.34389,0.0673 0.35828,0.11388 0.0261,0.0844 -1.84022,1.32696 -2.081,1.38548 -0.0697,0.0169 -0.28856,-0.0576 -0.4863,-0.16559 l -0.35952,-0.1964 -0.59622,0.40738 c -1.36928,0.93558 -2.03026,2.31865 -1.91592,4.00896 0.0291,0.43074 0.0236,0.78196 -0.0122,0.78049 -0.0359,-0.001 -0.33191,-0.14435 -0.65788,-0.3175 z"
         id="path171"
         inkscape:connector-curvature="0" />
      <path
         style="fill:#b0b3c7;stroke-width:0.08466667"
         d="m 228.2855,255.22758 c -0.6181,-1.05524 -1.11242,-1.95283 -1.09848,-1.99465 0.0139,-0.0418 0.52902,0.18338 1.14463,0.50045 l 1.11928,0.57648 8.9e-4,0.32307 c 0.001,0.46962 0.1162,0.62089 0.69267,0.91189 1.52436,0.7695 3.28087,0.5941 4.67011,-0.46633 0.21402,-0.16336 0.40495,-0.26978 0.42431,-0.23649 0.0194,0.0333 0.0619,0.35327 0.0945,0.71106 l 0.0593,0.65054 -0.3242,0.21375 c -0.62168,0.40989 -1.44788,0.66255 -2.31392,0.7076 -0.95516,0.0497 -1.56714,-0.0818 -2.45038,-0.52662 -0.32634,-0.16434 -0.63239,-0.2988 -0.68012,-0.2988 -0.0477,0 -0.0868,0.1905 -0.0868,0.42333 0,0.23284 -0.0288,0.42334 -0.064,0.42334 -0.0352,0 -0.56974,-0.86338 -1.18785,-1.91862 z m 7.56922,-0.55788 c -0.0247,-0.24448 -0.0652,-0.79796 -0.09,-1.22995 l -0.0452,-0.78545 0.38024,-0.26802 c 0.37318,-0.26304 0.38022,-0.27675 0.37899,-0.73855 -0.003,-1.11244 -0.47504,-2.2494 -1.26875,-3.05567 -0.46981,-0.47725 -1.19998,-0.9512 -1.63063,-1.05844 -0.1285,-0.032 -0.25379,-0.0908 -0.27842,-0.13064 -0.0246,-0.0399 0.22598,-0.25249 0.5569,-0.47254 l 0.60167,-0.40008 0.39277,0.20675 c 0.6225,0.32768 1.64169,1.38507 1.95387,2.02709 0.30942,0.63633 0.51693,1.5249 0.51904,2.2225 0.002,0.55616 0.0663,0.5927 0.54696,0.30913 0.19666,-0.11603 0.30117,-0.1418 0.30117,-0.0743 0,0.13283 -2.14009,3.89057 -2.2164,3.89175 -0.0316,5.1e-4 -0.0776,-0.19914 -0.10225,-0.44361 z m -5.96421,-0.86812 c -0.25458,-0.27856 -0.49635,-0.65439 -0.60116,-0.93451 -0.23713,-0.6338 -0.23713,-1.56062 0,-2.19441 0.23199,-0.62004 0.88172,-1.32498 1.50193,-1.62955 0.42993,-0.21113 0.57285,-0.23657 1.32843,-0.23651 0.76249,5e-5 0.89116,0.0235 1.2942,0.2358 0.6368,0.33542 1.05026,0.73952 1.38134,1.35008 0.27271,0.5029 0.28779,0.57509 0.28779,1.37738 0,0.76192 -0.0239,0.89328 -0.23854,1.31234 -0.23473,0.4582 -0.77905,1.10066 -0.93255,1.10066 -0.0431,0 -0.22214,-0.12987 -0.39784,-0.2886 -0.73636,-0.66526 -2.42861,-0.57404 -2.90742,0.15673 -0.078,0.1191 -0.17529,0.21654 -0.21611,0.21654 -0.0408,0 -0.26585,-0.20968 -0.50007,-0.46595 z m 2.76174,-1.04999 c 1.09778,-0.56361 0.70023,-2.2235 -0.53254,-2.2235 -1.25212,0 -1.653,1.69138 -0.53186,2.24397 0.36833,0.18154 0.6827,0.17549 1.0644,-0.0205 z m -5.57021,-0.28523 -0.55033,-0.27316 -0.025,-0.47385 c -0.0344,-0.65139 0.17427,-1.57959 0.50784,-2.2593 0.34003,-0.69288 1.18028,-1.57612 1.86667,-1.96219 0.26776,-0.15061 0.48683,-0.30752 0.48683,-0.34869 0,-0.0412 -0.1524,-0.15261 -0.33867,-0.24764 -0.18626,-0.095 -0.33866,-0.2101 -0.33866,-0.25572 0,-0.0521 0.83536,-0.083 2.24366,-0.083 1.23402,0 2.24367,0.0294 2.24367,0.0653 0,0.0359 -0.45944,0.36523 -1.02099,0.73181 l -1.02099,0.66651 -0.41721,-0.19541 c -0.41673,-0.19519 -0.41758,-0.19523 -0.73172,-0.0333 -0.17298,0.0892 -0.58618,0.42881 -0.91823,0.75478 -1.00085,0.98252 -1.36578,1.94703 -1.2894,3.40783 0.0284,0.54291 0.0121,0.78256 -0.0531,0.78117 -0.0517,-0.001 -0.34169,-0.12492 -0.64437,-0.27517 z"
         id="path169"
         inkscape:connector-curvature="0" />
      <path
         style="fill:#a2a6bd;stroke-width:0.08466667"
         d="m 231.68293,257.05891 c -0.53529,-0.0961 -1.18537,-0.34693 -1.63514,-0.63086 -0.18575,-0.11725 -0.37585,-0.21319 -0.42245,-0.21319 -0.10339,0 -0.20754,0.37958 -0.14726,0.53666 0.024,0.0625 0.0155,0.15919 -0.0189,0.21479 -0.038,0.0614 -0.46489,-0.58999 -1.08779,-1.65976 -1.05868,-1.81819 -1.18254,-2.05502 -1.07476,-2.05502 0.0349,0 0.53231,0.24874 1.10539,0.55276 l 1.04196,0.55275 0.0255,0.44208 0.0255,0.44208 0.5156,0.27271 c 1.56197,0.82615 3.47569,0.66734 4.81858,-0.39986 0.17398,-0.13826 0.34989,-0.23064 0.39091,-0.20529 0.041,0.0254 0.0746,0.32906 0.0746,0.6749 v 0.6288 l -0.32986,0.21829 c -0.8047,0.53252 -2.2616,0.81137 -3.28192,0.62816 z m 4.17479,-2.80439 c -0.0303,-0.42625 -0.055,-0.97559 -0.055,-1.22076 0,-0.41841 0.0182,-0.45703 0.2974,-0.62956 0.16357,-0.10109 0.3375,-0.25872 0.3865,-0.35029 0.18942,-0.35393 -0.0989,-1.72902 -0.53481,-2.55063 -0.3578,-0.67439 -1.25898,-1.50676 -2.0103,-1.8568 -0.32677,-0.15224 -0.59379,-0.29641 -0.59339,-0.32038 0.002,-0.0924 0.99503,-0.67857 1.15017,-0.67857 0.09,0 0.37273,0.14039 0.62822,0.31198 1.35478,0.90986 2.11214,2.29259 2.11454,3.86051 0.001,0.76563 0.0728,0.83995 0.54271,0.56271 0.1717,-0.10131 0.32638,-0.16994 0.34373,-0.15253 0.042,0.0422 -2.09729,3.79933 -2.16332,3.79933 -0.0283,0 -0.0762,-0.34875 -0.10644,-0.77501 z m -5.9223,-0.42669 c -1.23721,-1.30057 -1.01533,-3.49109 0.45445,-4.48671 1.22148,-0.82742 2.6584,-0.7414 3.69833,0.2214 0.57526,0.53258 0.84884,1.03406 0.97914,1.79477 0.0795,0.46427 0.0712,0.64004 -0.0529,1.11678 -0.15409,0.59204 -0.62727,1.3798 -0.95959,1.59755 -0.17915,0.11738 -0.20992,0.10647 -0.49006,-0.17367 -0.68157,-0.68157 -2.26641,-0.64788 -2.92037,0.0621 -0.11289,0.12256 -0.24262,0.22283 -0.28828,0.22283 -0.0457,0 -0.235,-0.15976 -0.42075,-0.35503 z m 2.82793,-1.10715 c 0.39164,-0.26163 0.6025,-0.69032 0.55758,-1.13358 -0.12015,-1.18566 -1.63063,-1.52602 -2.26831,-0.51114 -0.25435,0.40481 -0.18707,1.07553 0.14287,1.42424 0.30342,0.32068 0.486,0.40039 0.93286,0.4073 0.22718,0.004 0.44683,-0.0611 0.635,-0.18682 z m -5.62104,-0.23821 c -0.60697,-0.31326 -0.67003,-0.45978 -0.56944,-1.32318 0.1847,-1.5854 0.98978,-2.84617 2.29428,-3.59292 0.27272,-0.15611 0.49699,-0.34346 0.49837,-0.41633 0.001,-0.0729 -0.13286,-0.19704 -0.29833,-0.27594 -0.16546,-0.0789 -0.27751,-0.18122 -0.249,-0.22735 0.0659,-0.10659 4.27518,-0.11471 4.27518,-0.008 0,0.10237 -1.83673,1.27904 -1.99652,1.27904 -0.0698,0 -0.2717,-0.0739 -0.44869,-0.16417 -0.37615,-0.1919 -0.50353,-0.1483 -1.25038,0.42789 -1.17329,0.90518 -1.81087,2.38921 -1.67818,3.90611 0.0316,0.3609 0.0249,0.65434 -0.0149,0.6521 -0.0398,-0.002 -0.29285,-0.11789 -0.56238,-0.25699 z"
         id="path167"
         inkscape:connector-curvature="0" />
      <path
         style="fill:#9499b3;stroke-width:0.08466667"
         d="m 231.32226,256.93219 c -0.25233,-0.0707 -0.70828,-0.26098 -1.01323,-0.42291 -0.74076,-0.39335 -0.85632,-0.38738 -0.85632,0.0443 0,0.18627 -0.0286,0.33723 -0.0635,0.33547 -0.0807,-0.004 -2.08475,-3.46478 -2.03514,-3.51439 0.0203,-0.0203 0.48171,0.19399 1.02542,0.47615 0.82764,0.42951 0.98855,0.5448 0.98855,0.70831 0,0.6259 0.0761,0.72831 0.79574,1.07051 1.5002,0.7134 3.06087,0.6049 4.42133,-0.30739 0.31139,-0.20881 0.57511,-0.36961 0.58605,-0.35732 0.011,0.0123 0.0465,0.29299 0.0791,0.62381 l 0.0592,0.60148 -0.36718,0.21239 c -0.75352,0.43585 -1.33166,0.59557 -2.27219,0.62774 -0.61932,0.0212 -1.02817,-0.009 -1.34778,-0.0981 z m 4.61679,-2.16784 c -0.0227,-0.11027 -0.06,-0.6291 -0.0829,-1.15297 l -0.0417,-0.95248 0.37511,-0.25809 c 0.37006,-0.2546 0.3751,-0.26459 0.37387,-0.74085 -0.004,-1.66342 -1.03945,-3.31127 -2.51591,-4.0051 -0.33669,-0.15821 -0.61258,-0.30671 -0.61309,-0.33 -0.001,-0.0625 0.97035,-0.67733 1.07057,-0.67733 0.16762,0 1.27902,0.84028 1.58774,1.20041 0.72133,0.84146 1.14927,2.0055 1.14927,3.12614 0,0.31577 0.0388,0.5981 0.0862,0.6274 0.0474,0.0293 0.21887,-0.0287 0.381,-0.1289 0.16214,-0.10021 0.29479,-0.14491 0.29479,-0.0993 0,0.066 -1.89399,3.44383 -1.9964,3.56045 -0.0151,0.0171 -0.0459,-0.0591 -0.0686,-0.16934 z m -6.00828,-1.00892 c -1.03071,-1.14639 -1.00468,-2.9228 0.0587,-4.00416 0.67282,-0.68422 1.10351,-0.85791 2.13027,-0.8591 0.80361,-9.2e-4 0.87372,0.0137 1.37881,0.28758 0.95191,0.51616 1.45939,1.31247 1.52413,2.39156 0.048,0.80096 -0.12224,1.40113 -0.56111,1.97754 -0.46838,0.61518 -0.53359,0.63462 -0.92943,0.277 -0.75415,-0.68132 -2.45805,-0.5966 -2.9449,0.14644 -0.0759,0.11581 -0.16817,0.21057 -0.20506,0.21057 -0.0369,0 -0.24002,-0.19234 -0.45138,-0.42743 z m 2.77689,-0.94984 c 0.4272,-0.24198 0.65382,-0.62979 0.65382,-1.11889 0,-0.73307 -0.50994,-1.22917 -1.26348,-1.22917 -0.55551,0 -0.9371,0.25669 -1.15183,0.77482 -0.19867,0.47938 -0.14149,0.88637 0.17787,1.26591 0.42999,0.51101 1.02139,0.62578 1.58362,0.30733 z m -5.60445,-0.40829 -0.52917,-0.247 0.001,-0.52888 c 0.004,-1.61712 0.93789,-3.24138 2.33271,-4.05641 0.26919,-0.15729 0.50488,-0.33233 0.52376,-0.38897 0.0189,-0.0566 -0.11156,-0.18921 -0.28986,-0.29458 l -0.32419,-0.1916 1.08443,-0.0237 c 0.59643,-0.0131 1.54851,-0.0131 2.11573,0 l 1.03131,0.0237 -0.96873,0.62575 -0.96873,0.62576 -0.34267,-0.18149 c -0.18847,-0.0998 -0.39649,-0.18138 -0.46226,-0.18125 -0.20243,4e-4 -0.87388,0.47723 -1.33596,0.94873 -0.9461,0.96541 -1.34508,2.01682 -1.2802,3.37372 0.0199,0.41678 0.015,0.75451 -0.011,0.7505 -0.026,-0.004 -0.28537,-0.11843 -0.57641,-0.25428 z"
         id="path165"
         inkscape:connector-curvature="0" />
      <path
         style="fill:#8b90ad;stroke-width:0.08466667"
         d="m 231.9074,256.97815 c -0.63138,-0.0803 -1.04345,-0.21974 -1.67427,-0.56673 -0.63509,-0.34933 -0.80722,-0.34041 -0.86509,0.0448 -0.0398,0.26517 -0.0969,0.18763 -0.96654,-1.31329 -0.50831,-0.8773 -0.94136,-1.6272 -0.96234,-1.66644 -0.021,-0.0392 0.39491,0.15126 0.9242,0.42333 l 0.96235,0.49468 0.0423,0.46567 0.0423,0.46566 0.51561,0.27271 c 1.4879,0.78698 3.31999,0.69887 4.70544,-0.22631 0.55044,-0.36756 0.57862,-0.34944 0.57862,0.37207 v 0.44694 l -0.48683,0.25829 c -0.86105,0.45682 -1.87825,0.64777 -2.81581,0.52859 z m 4.02488,-3.23332 c -0.0683,-1.1438 -0.11217,-1.01687 0.50146,-1.44975 0.17943,-0.12658 0.21539,-0.21898 0.21416,-0.55034 -0.006,-1.70948 -1.01873,-3.35819 -2.5293,-4.1189 l -0.62301,-0.31374 0.44139,-0.29725 c 0.5295,-0.35659 0.6346,-0.34264 1.34188,0.17803 1.20263,0.88533 1.87851,2.22053 1.87851,3.711 0,0.74513 0.0922,0.88327 0.46156,0.69164 0.13253,-0.0688 0.25001,-0.11481 0.26106,-0.10234 0.0224,0.0253 -1.75075,3.15604 -1.83339,3.23705 -0.0288,0.0283 -0.0803,-0.41516 -0.11432,-0.9854 z m -5.92911,0.004 c -0.52433,-0.58036 -0.75696,-1.18677 -0.75975,-1.98044 -0.002,-0.59817 0.0305,-0.74593 0.27361,-1.23972 0.51367,-1.04342 1.43147,-1.62595 2.55869,-1.62401 0.85026,0.001 1.47224,0.24434 2.03872,0.79612 1.11463,1.08568 1.18251,2.84408 0.15498,4.01437 -0.14424,0.16428 -0.30593,0.29763 -0.35932,0.29634 -0.0534,-0.001 -0.20229,-0.1097 -0.33091,-0.2409 -0.30392,-0.31004 -0.73929,-0.43452 -1.51164,-0.43222 -0.71072,0.002 -1.21137,0.18274 -1.49068,0.53783 -0.0962,0.12227 -0.19353,0.22231 -0.21633,0.22231 -0.0228,0 -0.18362,-0.15736 -0.35737,-0.34968 z m 2.78502,-0.90755 c 0.87119,-0.49672 0.84207,-1.8521 -0.0495,-2.30697 -0.90822,-0.46334 -1.94538,0.15041 -1.94538,1.1512 0,1.05311 1.0788,1.67812 1.99493,1.15577 z m -5.68498,-0.5011 -0.4445,-0.22403 v -0.52865 c 0,-1.66341 0.92747,-3.2393 2.34951,-3.99212 0.58988,-0.31229 0.66241,-0.48704 0.29632,-0.71401 l -0.23283,-0.14436 0.60037,-0.002 c 0.3302,-10e-4 1.17793,-0.0273 1.88383,-0.0578 0.75234,-0.0326 1.28154,-0.0238 1.27882,0.0212 -0.003,0.0422 -0.38578,0.32031 -0.85162,0.61804 l -0.84697,0.54132 -0.40535,-0.18986 -0.40535,-0.18985 -0.37287,0.1896 c -0.54068,0.27493 -1.60051,1.38092 -1.87778,1.95957 -0.3506,0.7317 -0.50951,1.52469 -0.45917,2.2914 0.0237,0.36089 0.0181,0.65385 -0.0124,0.65101 -0.0305,-0.003 -0.25552,-0.10596 -0.49999,-0.22917 z"
         id="path163"
         inkscape:connector-curvature="0" />
    </g>
  </g>
</svg>
